<svg xmlns="http://www.w3.org/2000/svg" viewBox="0 0 57.48 51.72"><defs><style>.cls-1{fill:#f5f5f5;}</style></defs><title>icon 7</title><g id="Слой_2" data-name="Слой 2"><g id="_1280" data-name="1280"><g id="Body"><path d="M55.68,20.4a3.77,3.77,0,0,1-1.43,1.67,13,13,0,0,1-2.42,1.22,1.39,1.39,0,0,0-.88,1.3V34.88a46.67,46.67,0,0,0-6.61-1.58V15.16c1.36.24,2.65.52,3.84.82,5.54,1.42,7.51,3.12,7.51,4.23a1,1,0,0,1,0,.18Zm-13,22.32H16.25V6.13H42.67V42.72Zm0,4.39a2.84,2.84,0,0,1-2.84,2.84H19.09a2.84,2.84,0,0,1-2.84-2.84V44.39H42.67v2.71ZM19.09,1.78H39.83a2.84,2.84,0,0,1,2.83,2.68H16.26a2.84,2.84,0,0,1,2.83-2.68ZM1.78,40.29V23.09q.24.19.51.37a11.77,11.77,0,0,0,2.45,1.3v18c-2-.87-3-1.7-3-2.47Zm55.6-20.07c0-1.65-1.52-4-8.77-5.86-1.32-.34-2.75-.64-4.26-.9V4.61A4.52,4.52,0,0,0,39.83.1H19.09a4.52,4.52,0,0,0-4.51,4.51V9.2A.84.84,0,0,0,14,10v1.53a.84.84,0,0,0,.6.81v.88a57.62,57.62,0,0,0-5.7,1.13A.84.84,0,0,0,9.29,16c1.44-.37,3-.69,4.68-1v.84a.84.84,0,0,0,.6.81V33.08a49.51,49.51,0,0,0-8.15,1.84V24.17a.84.84,0,0,0-.54-.78A13.32,13.32,0,0,1,3.18,22,3.7,3.7,0,0,1,1.8,20.41a1,1,0,0,1,0-.19c0-.7.76-1.5,2.13-2.26a.84.84,0,0,0-.81-1.47c-2,1.1-3,2.36-3,3.73q0,.08,0,.16s0,.06,0,.09V40.29c0,2.08,2.35,3.33,4.39,4.19a1.4,1.4,0,0,0,1.94-1.29h0V36.69a45.54,45.54,0,0,1,8.15-1.91V47.11a4.52,4.52,0,0,0,4.51,4.52H39.83a4.52,4.52,0,0,0,4.51-4.52V35a42,42,0,0,1,6.71,1.69v6.49A1.4,1.4,0,0,0,53,44.48c2-.86,4.39-2.1,4.39-4.19v-4a.84.84,0,1,0-1.68,0v4c0,.77-1,1.6-3,2.47v-18a11.55,11.55,0,0,0,2.59-1.39l.38-.28v7.25a.84.84,0,1,0,1.68,0V20.47a.84.84,0,0,0,0-.09q0-.08,0-.16Z"/><path class="cls-1" d="M39.83,51.72H19.09a4.62,4.62,0,0,1-4.62-4.62V34.9a45.09,45.09,0,0,0-7.95,1.86v6.42a1.5,1.5,0,0,1-.67,1.25,1.52,1.52,0,0,1-1.41.14C2.38,43.7,0,42.43,0,40.29V20.47s0-.06,0-.1,0-.09,0-.15c0-1.41,1-2.7,3-3.82A.94.94,0,1,1,4,18c-1.34.74-2.08,1.52-2.08,2.18a.88.88,0,0,0,0,.17A3.56,3.56,0,0,0,3.24,22,13.38,13.38,0,0,0,5.93,23.3a.94.94,0,0,1,.6.88V34.78A49.63,49.63,0,0,1,14.48,33V16.74a1,1,0,0,1-.6-.88v-.72c-1.64.27-3.17.59-4.56.94a.94.94,0,0,1-1.14-.68.94.94,0,0,1,.68-1.14c1.69-.43,3.58-.81,5.63-1.12v-.72a1,1,0,0,1-.6-.88V10a1,1,0,0,1,.6-.88V4.61A4.62,4.62,0,0,1,19.09,0H39.83a4.62,4.62,0,0,1,4.61,4.61v8.76c1.51.26,2.92.56,4.18.89,7.31,1.88,8.85,4.27,8.85,6,0,.06,0,.11,0,.17a.49.49,0,0,1,0,.08v9.87a.94.94,0,0,1-1.88,0v-7l-.22.16a11.55,11.55,0,0,1-2.54,1.38V42.61c1.84-.83,2.77-1.61,2.77-2.32v-4a.94.94,0,0,1,1.88,0v4c0,2.14-2.38,3.41-4.45,4.28A1.5,1.5,0,0,1,51,43.19V36.76a41.75,41.75,0,0,0-6.51-1.64v12A4.62,4.62,0,0,1,39.83,51.72ZM14.68,34.67V47.11a4.42,4.42,0,0,0,4.42,4.42H39.83a4.42,4.42,0,0,0,4.41-4.42V34.88l.12,0a41.93,41.93,0,0,1,6.72,1.69l.07,0v6.56a1.3,1.3,0,0,0,1.8,1.2c2-.84,4.33-2.07,4.33-4.1v-4a.74.74,0,1,0-1.48,0v4c0,.81-1,1.68-3,2.57l-.14.06V24.69l.06,0a11.42,11.42,0,0,0,2.56-1.38l.38-.28.16-.13v7.45a.74.74,0,1,0,1.48,0V20.47a.63.63,0,0,0,0-.08c0-.07,0-.12,0-.17,0-1.61-1.51-3.92-8.7-5.76-1.29-.33-2.72-.63-4.25-.9h-.08V4.61A4.42,4.42,0,0,0,39.83.2H19.09a4.42,4.42,0,0,0-4.42,4.42V9.27l-.07,0a.75.75,0,0,0-.53.71v1.53a.75.75,0,0,0,.53.71l.07,0v1h-.08A57.66,57.66,0,0,0,8.9,14.46a.74.74,0,0,0,.37,1.43c1.42-.37,3-.69,4.69-1l.12,0v1a.75.75,0,0,0,.53.71l.07,0V33.17h-.09A49.22,49.22,0,0,0,6.46,35l-.13,0V24.17a.74.74,0,0,0-.47-.69,13.67,13.67,0,0,1-2.73-1.36A3.74,3.74,0,0,1,1.7,20.44a1.06,1.06,0,0,1,0-.22c0-.74.78-1.57,2.18-2.35a.74.74,0,0,0-.15-1.36.72.72,0,0,0-.56.06C1.19,17.66.2,18.88.2,20.22c0,.05,0,.1,0,.16s0,.07,0,.09V40.29c0,2,2.31,3.25,4.33,4.1a1.3,1.3,0,0,0,1.8-1.2V36.62l.07,0a45.25,45.25,0,0,1,8.17-1.91ZM39.83,50H19.09a2.94,2.94,0,0,1-2.94-2.94V44.29H42.77v2.81A2.94,2.94,0,0,1,39.83,50ZM16.35,44.49v2.61a2.74,2.74,0,0,0,2.74,2.74H39.83a2.74,2.74,0,0,0,2.74-2.74V44.49ZM4.85,42.92l-.14-.06c-2-.9-3-1.74-3-2.57V22.88l.16.13.51.37a11.58,11.58,0,0,0,2.43,1.29l.06,0Zm-3-19.63v17c0,.71.93,1.49,2.77,2.32V24.83a11.82,11.82,0,0,1-2.41-1.29ZM42.77,42.82H16.15V6H42.77Zm-26.42-.2H42.57V6.23H16.35ZM51.06,35l-.13,0a46.32,46.32,0,0,0-6.59-1.58h-.08V15l.12,0c1.37.24,2.67.52,3.85.82,3.67.94,7.59,2.57,7.59,4.33a1.07,1.07,0,0,1,0,.2h0a3.8,3.8,0,0,1-1.47,1.72,13.15,13.15,0,0,1-2.44,1.23,1.29,1.29,0,0,0-.82,1.21Zm-6.61-1.8a46.73,46.73,0,0,1,6.41,1.53V24.59a1.49,1.49,0,0,1,.94-1.39A13,13,0,0,0,54.2,22a3.62,3.62,0,0,0,1.39-1.61.87.87,0,0,0,0-.15c0-.37-.36-2.32-7.44-4.14-1.14-.29-2.39-.56-3.72-.8ZM42.77,4.56H16.15V4.45a2.94,2.94,0,0,1,2.93-2.77H39.83a2.94,2.94,0,0,1,2.93,2.77Zm-26.41-.2H42.56a2.74,2.74,0,0,0-2.72-2.48H19.09A2.74,2.74,0,0,0,16.37,4.36Z"/><path d="M29.46,46.45a.73.73,0,1,1-.73.73.73.73,0,0,1,.73-.73Zm0,3.14a2.41,2.41,0,1,0-2.41-2.41,2.41,2.41,0,0,0,2.41,2.41Z"/><path class="cls-1" d="M29.46,49.69A2.51,2.51,0,1,1,32,47.18,2.51,2.51,0,0,1,29.46,49.69Zm0-4.82a2.31,2.31,0,1,0,2.31,2.31A2.31,2.31,0,0,0,29.46,44.87Zm0,3.14a.83.83,0,1,1,.83-.83A.83.83,0,0,1,29.46,48Zm0-1.46a.63.63,0,1,0,.63.63A.63.63,0,0,0,29.46,46.55Z"/><path d="M30.82,2.39H28.1a.84.84,0,1,0,0,1.68h2.72a.84.84,0,0,0,0-1.68Z"/><path class="cls-1" d="M30.82,4.17H28.1a.94.94,0,1,1,0-1.88h2.72a.94.94,0,1,1,0,1.88ZM28.1,2.49A.74.74,0,0,0,28.1,4h2.72a.74.74,0,0,0,0-1.48Z"/><path d="M18,10a.84.84,0,0,0,.84-.84V8.57h.66a.84.84,0,1,0,0-1.68H18a.84.84,0,0,0-.84.84V9.13A.84.84,0,0,0,18,10Z"/><path class="cls-1" d="M18,10.07a.94.94,0,0,1-.94-.94V7.73A.94.94,0,0,1,18,6.79h1.5a.94.94,0,1,1,0,1.88h-.56v.47A.94.94,0,0,1,18,10.07ZM18,7a.74.74,0,0,0-.74.74V9.13a.74.74,0,1,0,1.48,0V8.47h.76A.74.74,0,0,0,19.5,7Z"/><path d="M39.42,8.57h.66v.57a.84.84,0,0,0,1.68,0V7.73a.84.84,0,0,0-.84-.84h-1.5a.84.84,0,0,0,0,1.68Z"/><path class="cls-1" d="M40.93,10.07A.94.94,0,0,1,40,9.13V8.67h-.56a.94.94,0,1,1,0-1.88h1.5a.94.94,0,0,1,.94.94V9.13A.94.94,0,0,1,40.93,10.07ZM39.42,7a.74.74,0,0,0,0,1.48h.76v.67a.74.74,0,1,0,1.48,0V7.73A.74.74,0,0,0,40.93,7Z"/><path d="M18,42h1.5a.84.84,0,1,0,0-1.68h-.66v-.57a.84.84,0,1,0-1.68,0v1.41A.84.84,0,0,0,18,42Z"/><path class="cls-1" d="M19.5,42.06H18a.94.94,0,0,1-.94-.94V39.72a.94.94,0,0,1,1.88,0v.47h.56a.94.94,0,1,1,0,1.88ZM18,39a.74.74,0,0,0-.74.74v1.41a.74.74,0,0,0,.74.74h1.5a.74.74,0,0,0,0-1.48h-.76v-.67A.74.74,0,0,0,18,39Z"/><path d="M39.42,42h1.5a.84.84,0,0,0,.84-.84V39.72a.84.84,0,0,0-1.68,0v.57h-.66a.84.84,0,0,0,0,1.68Z"/><path class="cls-1" d="M40.93,42.06h-1.5a.94.94,0,1,1,0-1.88H40v-.47a.94.94,0,0,1,1.88,0v1.41A.94.94,0,0,1,40.93,42.06Zm-1.5-1.68a.74.74,0,0,0,0,1.48h1.5a.74.74,0,0,0,.74-.74V39.72a.74.74,0,1,0-1.48,0v.67Z"/><path d="M26.07,25.26h2.56v2.56a.84.84,0,0,0,1.68,0V25.26h2.56a.84.84,0,1,0,0-1.68H30.3V21a.84.84,0,1,0-1.68,0v2.56H26.07a.84.84,0,0,0,0,1.68Z"/><path class="cls-1" d="M29.46,28.76a.94.94,0,0,1-.94-.94V25.36H26.07a.94.94,0,1,1,0-1.88h2.46V21a.94.94,0,0,1,1.88,0v2.46h2.46a.94.94,0,1,1,0,1.88H30.4v2.46A.94.94,0,0,1,29.46,28.76Zm-3.4-5.07a.74.74,0,0,0,0,1.48h2.66v2.66a.74.74,0,1,0,1.48,0V25.16h2.66a.74.74,0,0,0,0-1.48H30.2V21a.74.74,0,1,0-1.48,0v2.66Z"/></g></g></g></svg>