<svg xmlns="http://www.w3.org/2000/svg" viewBox="0 0 48.74 48.74"><defs><style>.cls-1{fill:#fff;}</style></defs><title>icon 16</title><g id="Слой_2" data-name="Слой 2"><g id="_1280" data-name="1280"><g id="Body"><path class="cls-1" d="M47.12,17.87a.81.81,0,0,1-.81.81H40.89a.81.81,0,0,0-.62.29l-2.08,2.5L36.1,19a.81.81,0,0,0-.62-.29H34.7a13,13,0,0,0,.19-1.62h0a.81.81,0,0,0,.81-.81v-.81a11.28,11.28,0,0,0-1.11-4.87H46.31a.81.81,0,0,1,.81.81v6.5ZM29.23,25a7.58,7.58,0,0,1-9.54.13h3.87V23.56H18a11.3,11.3,0,0,1-2.57-6.65,33.32,33.32,0,0,1,10.61-4.54,5.7,5.7,0,0,0,5.6,4.69h1.59a11.28,11.28,0,0,1-4,8Zm-.8,5v1.12l-4.06,2-4.06-2v-3.7a9.15,9.15,0,0,0,8.12,0v2.58Zm7.37,3,1.48,14H30.06V31.19L35.8,33.1Zm-10.12,14,1.85-3.7a.81.81,0,0,0,.06-.58l-2-7.47,2.88,1V47.12ZM20.31,36.33l2.88-1-2,7.47a.81.81,0,0,0,.06.58l1.85,3.7H20.31V36.33ZM12.94,33.1l5.75-1.91V47.12H11.46l1.48-14Zm7.37,1.52V33l1.94,1-1.94.65Zm8.12,0L26.49,34l1.94-1v1.62ZM25.94,43l-1.57,3.14L22.8,43l1.57-5.76L25.94,43ZM10,13a.81.81,0,0,0-.62.29l-2.08,2.5-2.08-2.5A.81.81,0,0,0,4.6,13H2.44a.81.81,0,0,1-.81-.81V2.44a.81.81,0,0,1,.81-.81h19.5a.81.81,0,0,1,.81.81V4.19A11.39,11.39,0,0,0,13.27,13Zm24.1,2.44H31.68a4.07,4.07,0,0,1-4.06-4.06.81.81,0,0,0-.81-.81l-.18,0-.49.11a35,35,0,0,0-11.52,4.83v-.09a9.75,9.75,0,1,1,19.5,0Zm12.19-6.5H33.69a11.36,11.36,0,0,0-9.32-4.87V2.44A2.44,2.44,0,0,0,21.93,0H2.44A2.44,2.44,0,0,0,0,2.44v9.75a2.44,2.44,0,0,0,2.44,2.44H4.22l2.46,3a.81.81,0,0,0,1.14.1l.1-.1,2.46-3H13c0,.27,0,.54,0,.81v1.62a.75.75,0,0,0,.91.8A12.93,12.93,0,0,0,16,23.54a3.25,3.25,0,0,1-2.91-2.42h.71V19.5H12.19a.81.81,0,0,0-.81.81,4.88,4.88,0,0,0,4.87,4.87H17.3a12.91,12.91,0,0,0,1.16,1.11l.21.16v3l-6.76,2.25a.81.81,0,0,0-.55.69L9.75,47.85a.81.81,0,0,0,.72.89H38.18a.81.81,0,0,0,.81-.81s0-.05,0-.08L37.36,32.41a.81.81,0,0,0-.55-.69l-6.76-2.26v-3l.21-.16a12.92,12.92,0,0,0,4-6h.79l2.46,3a.81.81,0,0,0,1.14.1l.1-.1,2.46-3h5a2.44,2.44,0,0,0,2.44-2.44v-6.5a2.44,2.44,0,0,0-2.44-2.44Z"/></g></g></g></svg>