<svg xmlns="http://www.w3.org/2000/svg" viewBox="0 0 48.94 48.94"><defs><style>.cls-1{fill:#1d1d1b;}.cls-2{fill:#f5f5f5;}</style></defs><title>icon 5</title><g id="Слой_2" data-name="Слой 2"><g id="_1280" data-name="1280"><g id="Body"><path class="cls-1" d="M34.93,7.21a.95.95,0,1,0-.67-.28,1,1,0,0,0,.67.28Z"/><path class="cls-2" d="M34.93,7.42a1.15,1.15,0,0,1-.81-2,1.19,1.19,0,0,1,1.62,0,1.15,1.15,0,0,1-.81,2Zm0-1.9A.75.75,0,0,0,34.4,6.8a.78.78,0,0,0,1.06,0,.75.75,0,0,0,0-1.06A.75.75,0,0,0,34.93,5.52Z"/><path class="cls-1" d="M32.28,15.94H28.11V11.76h4.17v4.17Zm1.9-5.12a1,1,0,0,0-.95-.95H27.16a1,1,0,0,0-.95.95v6.07a1,1,0,0,0,.95.95h6.07a1,1,0,0,0,.95-.95V10.82Z"/><path class="cls-2" d="M33.22,18H27.16A1.15,1.15,0,0,1,26,16.88V10.82a1.15,1.15,0,0,1,1.15-1.15h6.07a1.15,1.15,0,0,1,1.15,1.15v6.07A1.15,1.15,0,0,1,33.22,18Zm-6.07-8a.75.75,0,0,0-.75.75v6.07a.75.75,0,0,0,.75.75h6.07a.75.75,0,0,0,.75-.75V10.82a.75.75,0,0,0-.75-.75Zm5.32,6.07H27.9V11.56h4.57Zm-4.17-.4h3.77V12H28.31Z"/><path class="cls-1" d="M32.28,26.55H28.11V22.38h4.17v4.17Zm1.9.95V21.43a1,1,0,0,0-.95-.95H27.16a1,1,0,0,0-.95.95V27.5a1,1,0,0,0,.95.95h6.07a1,1,0,0,0,.95-.95Z"/><path class="cls-2" d="M33.22,28.65H27.16A1.15,1.15,0,0,1,26,27.5V21.43a1.15,1.15,0,0,1,1.15-1.15h6.07a1.15,1.15,0,0,1,1.15,1.15V27.5A1.15,1.15,0,0,1,33.22,28.65Zm-6.07-8a.75.75,0,0,0-.75.75V27.5a.75.75,0,0,0,.75.75h6.07A.75.75,0,0,0,34,27.5V21.43a.75.75,0,0,0-.75-.75Zm5.32,6.07H27.9V22.18h4.57Zm-4.17-.4h3.77V22.58H28.31Z"/><path class="cls-1" d="M27.16,31.1a1,1,0,0,0-.95.95v6.07a.95.95,0,0,0,1.9,0V33h2.09a.95.95,0,0,0,0-1.9Z"/><path class="cls-2" d="M27.16,39.27A1.15,1.15,0,0,1,26,38.12V32.05a1.15,1.15,0,0,1,1.15-1.15h3a1.15,1.15,0,1,1,0,2.3H28.31v4.92A1.15,1.15,0,0,1,27.16,39.27Zm0-8a.75.75,0,0,0-.75.75v6.07a.75.75,0,1,0,1.5,0V32.8h2.29a.75.75,0,1,0,0-1.5Z"/><path class="cls-1" d="M23.55,10.82a.95.95,0,1,0-1.9,0v5.12H16.54a.95.95,0,1,0,0,1.9H22.6a1,1,0,0,0,.95-.95V10.82Z"/><path class="cls-2" d="M22.6,18H16.54a1.15,1.15,0,0,1,0-2.3h4.92V10.82a1.15,1.15,0,1,1,2.3,0v6.07A1.15,1.15,0,0,1,22.6,18Zm-6.07-1.9a.75.75,0,0,0,0,1.5H22.6a.75.75,0,0,0,.75-.75V10.82a.75.75,0,1,0-1.5,0v5.32Z"/><path class="cls-1" d="M21.66,26.55H17.48V22.38h4.17v4.17Zm1.9-5.12a1,1,0,0,0-.95-.95H16.54a1,1,0,0,0-.95.95V27.5a1,1,0,0,0,.95.95H22.6a1,1,0,0,0,.95-.95V21.43Z"/><path class="cls-2" d="M22.6,28.65H16.54a1.15,1.15,0,0,1-1.15-1.15V21.43a1.15,1.15,0,0,1,1.15-1.15H22.6a1.15,1.15,0,0,1,1.15,1.15V27.5A1.15,1.15,0,0,1,22.6,28.65Zm-6.07-8a.75.75,0,0,0-.75.75V27.5a.75.75,0,0,0,.75.75H22.6a.75.75,0,0,0,.75-.75V21.43a.75.75,0,0,0-.75-.75Zm5.32,6.07H17.28V22.18h4.57Zm-4.17-.4h3.77V22.58H17.68Z"/><path class="cls-1" d="M21.66,37.17H17.48V33h4.17v4.17Zm.95-6.07H16.54a1,1,0,0,0-.95.95v6.07a1,1,0,0,0,.95.95H22.6a1,1,0,0,0,.95-.95V32.05a1,1,0,0,0-.95-.95Z"/><path class="cls-2" d="M22.6,39.27H16.54a1.15,1.15,0,0,1-1.15-1.15V32.05a1.15,1.15,0,0,1,1.15-1.15H22.6a1.15,1.15,0,0,1,1.15,1.15v6.07A1.15,1.15,0,0,1,22.6,39.27Zm-6.07-8a.75.75,0,0,0-.75.75v6.07a.75.75,0,0,0,.75.75H22.6a.75.75,0,0,0,.75-.75V32.05a.75.75,0,0,0-.75-.75Zm5.32,6.07H17.28V32.8h4.57ZM17.68,37h3.77V33.2H17.68Z"/><path class="cls-1" d="M23.77,44.68a.95.95,0,1,0,.67-.28,1,1,0,0,0-.67.28Z"/><path class="cls-2" d="M24.44,46.5a1.15,1.15,0,0,1-.81-2,1.19,1.19,0,0,1,1.62,0,1.15,1.15,0,0,1-.81,2Zm0-1.9a.75.75,0,0,0-.75.75.76.76,0,0,0,.22.53.78.78,0,0,0,1.06,0,.75.75,0,0,0,0-1.06A.75.75,0,0,0,24.44,44.6Z"/><path class="cls-1" d="M2.1,15v-.34l.15-.12,3-3,2.1,2.1a1,1,0,0,0,1.34,0l4-4V15a1,1,0,0,1-.95.95H3A1,1,0,0,1,2.1,15ZM3,5.32h8.72a1,1,0,0,1,.95.95v.65L8,11.61l-2.1-2.1a1,1,0,0,0-1.34,0L2.1,12V6.27A1,1,0,0,1,3,5.32ZM14.61,15V7.21H30.53a.95.95,0,1,0,0-1.9H14.45a2.85,2.85,0,0,0-2.68-1.9H10.63V3a1,1,0,0,1,.95-.95H37.36a1,1,0,0,1,.95.95V24.47a.95.95,0,0,0,1.9,0V3A2.85,2.85,0,0,0,37.36.2H11.58A2.85,2.85,0,0,0,8.73,3v.38H3A2.85,2.85,0,0,0,.2,6.27V15A2.85,2.85,0,0,0,3,17.83h8.72A2.85,2.85,0,0,0,14.61,15Z"/><path class="cls-2" d="M39.26,25.62a1.15,1.15,0,0,1-1.15-1.15V3a.75.75,0,0,0-.75-.75H11.58a.75.75,0,0,0-.75.75v.18h.94a3,3,0,0,1,2.82,1.9h16a1.15,1.15,0,1,1,0,2.3H14.81V15a3,3,0,0,1-3,3H3a3,3,0,0,1-3-3V6.27a3,3,0,0,1,3-3H8.53V3a3,3,0,0,1,3-3H37.36a3,3,0,0,1,3,3V24.47A1.15,1.15,0,0,1,39.26,25.62ZM11.58,1.9H37.36A1.15,1.15,0,0,1,38.51,3V24.47a.75.75,0,0,0,1.5,0V3A2.65,2.65,0,0,0,37.36.4H11.58A2.65,2.65,0,0,0,8.93,3v.58H3A2.65,2.65,0,0,0,.4,6.27V15A2.65,2.65,0,0,0,3,17.63h8.72A2.65,2.65,0,0,0,14.41,15V7H30.53a.75.75,0,1,0,0-1.5H14.3l0-.13a2.65,2.65,0,0,0-2.49-1.76H10.43V3A1.15,1.15,0,0,1,11.58,1.9Zm.19,14.24H3A1.15,1.15,0,0,1,1.9,15v-.45L2,14.48l.12-.1,3.15-3.15,2.24,2.24a.75.75,0,0,0,1.06,0l4.36-4.36V15A1.15,1.15,0,0,1,11.77,16.13ZM2.3,14.74V15a.75.75,0,0,0,.75.75h8.72a.75.75,0,0,0,.75-.75V10.08L8.83,13.76a1.15,1.15,0,0,1-1.62,0l-2-2L2.39,14.66Zm-.4-2.27V6.27A1.15,1.15,0,0,1,3,5.12h8.72a1.15,1.15,0,0,1,1.15,1.15V7L8,11.89,5.78,9.65a.75.75,0,0,0-1.06,0ZM3,5.52a.75.75,0,0,0-.75.75v5.24L4.44,9.37a1.15,1.15,0,0,1,1.62,0l2,2,4.49-4.49V6.27a.75.75,0,0,0-.75-.75Z"/><path class="cls-1" d="M46.84,40.77a1,1,0,0,1-.95.95H35.65a1,1,0,0,1-.95-.95V30.53a1,1,0,0,1,.95-.95H45.89a1,1,0,0,1,.95.95V40.77Zm-.95-13.08H35.65a2.85,2.85,0,0,0-2.84,2.84V40.77a2.85,2.85,0,0,0,2.84,2.84h2.65v2.28a1,1,0,0,1-.95.95H11.58a1,1,0,0,1-.95-.95V43.62h20a.95.95,0,0,0,0-1.9h-20V21.43a.95.95,0,1,0-1.9,0V45.89a2.85,2.85,0,0,0,2.84,2.84H37.36a2.85,2.85,0,0,0,2.84-2.84V43.62h5.69a2.85,2.85,0,0,0,2.84-2.84V30.53a2.85,2.85,0,0,0-2.84-2.84Z"/><path class="cls-2" d="M37.36,48.94H11.58a3,3,0,0,1-3-3V21.43a1.15,1.15,0,1,1,2.3,0V41.52H30.66a1.15,1.15,0,1,1,0,2.3H10.83v2.08a.75.75,0,0,0,.75.75H37.36a.75.75,0,0,0,.75-.75V43.82H35.65a3,3,0,0,1-3-3V30.53a3,3,0,0,1,3-3H45.89a3,3,0,0,1,3,3V40.77a3,3,0,0,1-3,3H40.4v2.08A3,3,0,0,1,37.36,48.94ZM9.68,20.69a.75.75,0,0,0-.75.75V45.89a2.65,2.65,0,0,0,2.64,2.64H37.36A2.65,2.65,0,0,0,40,45.89V43.42h5.89a2.65,2.65,0,0,0,2.64-2.64V30.53a2.65,2.65,0,0,0-2.64-2.64H35.65A2.65,2.65,0,0,0,33,30.53V40.77a2.65,2.65,0,0,0,2.64,2.64h2.85v2.48A1.15,1.15,0,0,1,37.36,47H11.58a1.15,1.15,0,0,1-1.15-1.15V43.42H30.66a.75.75,0,1,0,0-1.5H10.43V21.43A.75.75,0,0,0,9.68,20.69ZM45.89,41.92H35.65a1.15,1.15,0,0,1-1.15-1.15V30.53a1.15,1.15,0,0,1,1.15-1.15H45.89A1.15,1.15,0,0,1,47,30.53V40.77A1.15,1.15,0,0,1,45.89,41.92ZM35.65,29.79a.75.75,0,0,0-.75.75V40.77a.75.75,0,0,0,.75.75H45.89a.75.75,0,0,0,.75-.75V30.53a.75.75,0,0,0-.75-.75Z"/><path class="cls-1" d="M43.62,19.32a1,1,0,0,0,.95-.95V10.82a.95.95,0,1,0-1.9,0v7.55a1,1,0,0,0,.95.95Z"/><path class="cls-2" d="M43.62,19.52a1.15,1.15,0,0,1-1.15-1.15V10.82a1.15,1.15,0,1,1,2.3,0v7.55A1.15,1.15,0,0,1,43.62,19.52Zm0-9.45a.75.75,0,0,0-.75.75v7.55a.75.75,0,1,0,1.5,0V10.82A.75.75,0,0,0,43.62,10.07Z"/><path class="cls-1" d="M43.62,22.92a.95.95,0,1,0-.67-.28,1,1,0,0,0,.67.28Z"/><path class="cls-2" d="M43.62,23.12a1.15,1.15,0,0,1-.81-2,1.19,1.19,0,0,1,1.62,0,1.15,1.15,0,0,1-.81,2Zm0-1.9a.75.75,0,0,0-.53,1.28.77.77,0,0,0,1.06,0,.75.75,0,0,0-.53-1.28Z"/><path class="cls-1" d="M5.32,22.1a1,1,0,0,0-.95.95v6.53a.95.95,0,1,0,1.9,0V23a1,1,0,0,0-.95-.95Z"/><path class="cls-2" d="M5.32,30.72a1.15,1.15,0,0,1-1.15-1.15V23a1.15,1.15,0,1,1,2.3,0v6.53A1.15,1.15,0,0,1,5.32,30.72Zm0-8.42a.75.75,0,0,0-.75.75v6.53a.75.75,0,1,0,1.5,0V23A.75.75,0,0,0,5.32,22.3Z"/><path class="cls-1" d="M42.78,35.8l-3.33,1.92a.17.17,0,0,1-.25-.14V33.73a.16.16,0,0,1,.08-.14l.08,0,.08,0,3.33,1.92a.16.16,0,0,1,0,.29Zm.95-1.93L40.4,31.95a2.06,2.06,0,0,0-3.09,1.79v3.84a2.06,2.06,0,0,0,3.09,1.79l3.33-1.92a2.06,2.06,0,0,0,0-3.57Z"/><path class="cls-2" d="M39.37,39.84a2.27,2.27,0,0,1-1.13-.31,2.24,2.24,0,0,1-1.13-2V33.73a2.26,2.26,0,0,1,3.39-2l3.33,1.92a2.26,2.26,0,0,1,0,3.92L40.5,39.53A2.26,2.26,0,0,1,39.37,39.84Zm0-8a1.87,1.87,0,0,0-1.86,1.86v3.84a1.84,1.84,0,0,0,.93,1.61,1.87,1.87,0,0,0,1.86,0l3.33-1.92a1.86,1.86,0,0,0,0-3.22h0L40.3,32.12A1.86,1.86,0,0,0,39.37,31.87Zm0,6.07a.36.36,0,0,1-.18-.05.35.35,0,0,1-.18-.31V33.73a.37.37,0,0,1,.55-.32l3.33,1.92a.36.36,0,0,1,0,.63l-3.33,1.92A.36.36,0,0,1,39.37,37.94Zm0-4.14v3.72l3.24-1.87Zm3.28,1.83.1.17-.1-.17Z"/></g></g></g></svg>