<svg xmlns="http://www.w3.org/2000/svg" viewBox="0 0 47.33 49.82"><defs><style>.cls-1{fill:#fff;}</style></defs><title>icon 12</title><g id="Слой_2" data-name="Слой 2"><g id="_1280" data-name="1280"><g id="Body"><path class="cls-1" d="M23.25,40.69a2.49,2.49,0,1,1,2.49-2.49,2.49,2.49,0,0,1-2.49,2.49Zm0-6.64A4.15,4.15,0,1,0,27.4,38.2,4.15,4.15,0,0,0,23.25,34Zm6.64,5H28.82a.83.83,0,0,0-.8.59,4.92,4.92,0,0,1-.39.95.83.83,0,0,0,.14,1l.76.76-1.17,1.17-.76-.76a.83.83,0,0,0-1-.14,4.92,4.92,0,0,1-.95.39.83.83,0,0,0-.59.8v1.07H22.42V43.76a.83.83,0,0,0-.59-.8,4.92,4.92,0,0,1-.95-.39.83.83,0,0,0-1,.14l-.76.76L18,42.31l.76-.76a.83.83,0,0,0,.14-1,4.92,4.92,0,0,1-.39-.95.83.83,0,0,0-.8-.59H16.61V37.37h1.07a.83.83,0,0,0,.8-.59,4.92,4.92,0,0,1,.39-.95.83.83,0,0,0-.14-1L18,34.08l1.17-1.17.76.76a.83.83,0,0,0,1,.14,4.92,4.92,0,0,1,.95-.39.83.83,0,0,0,.59-.79V31.55h1.66v1.07a.83.83,0,0,0,.59.8,4.92,4.92,0,0,1,.95.39.83.83,0,0,0,1-.14l.76-.76,1.17,1.17-.76.76a.83.83,0,0,0-.14,1,4.92,4.92,0,0,1,.39.95.83.83,0,0,0,.8.59h1.07V39Zm.83-3.32H29.41l0-.1.93-.93a.83.83,0,0,0,0-1.17l-2.35-2.35a.85.85,0,0,0-1.17,0l-.93.93-.1,0V30.72a.83.83,0,0,0-.83-.83H21.59a.83.83,0,0,0-.83.83V32l-.1,0-.93-.93a.83.83,0,0,0-1.17,0L16.2,33.5a.83.83,0,0,0,0,1.17l.93.93,0,.1H15.78a.83.83,0,0,0-.83.83v3.32a.83.83,0,0,0,.83.83h1.32l0,.1-.93.93a.83.83,0,0,0,0,1.17l2.35,2.35a.85.85,0,0,0,1.17,0l.93-.93.1,0v1.32a.83.83,0,0,0,.83.83h3.32a.83.83,0,0,0,.83-.83V44.35l.1,0,.93.93a.83.83,0,0,0,1.17,0l2.35-2.35a.83.83,0,0,0,0-1.17l-.93-.93,0-.1h1.32a.83.83,0,0,0,.83-.83V36.53a.83.83,0,0,0-.83-.83ZM39,29.89a2.49,2.49,0,1,1,2.49-2.49A2.49,2.49,0,0,1,39,29.89Zm0-6.64a4.15,4.15,0,1,0,4.15,4.15A4.15,4.15,0,0,0,39,23.25Zm6.64,5H44.59a.83.83,0,0,0-.8.59,4.92,4.92,0,0,1-.39.95.83.83,0,0,0,.14,1l.76.76-1.17,1.17-.76-.76a.83.83,0,0,0-1-.14,4.92,4.92,0,0,1-.95.39.83.83,0,0,0-.59.8V34H38.2V33a.83.83,0,0,0-.59-.8,4.92,4.92,0,0,1-.95-.39.83.83,0,0,0-1,.14l-.76.76-1.17-1.17.76-.76a.83.83,0,0,0,.14-1,4.92,4.92,0,0,1-.39-.95.83.83,0,0,0-.8-.59H32.38V26.57h1.07a.83.83,0,0,0,.8-.59,4.92,4.92,0,0,1,.39-.95.83.83,0,0,0-.14-1l-.76-.76,1.17-1.17.76.76a.82.82,0,0,0,.25.17l.09,0,.2,0h.21a.83.83,0,0,0,.23-.08,4.92,4.92,0,0,1,.95-.39.83.83,0,0,0,.59-.79V20.76h1.66v1.07a.83.83,0,0,0,.59.8,4.92,4.92,0,0,1,.95.39.83.83,0,0,0,1-.14l.76-.76,1.17,1.17-.76.76a.83.83,0,0,0-.14,1,4.92,4.92,0,0,1,.39.95.83.83,0,0,0,.8.59h1.07v1.66Zm-8.3,19.93H34.87V34.69a.8.8,0,0,0,.63-.24l.93-.93.1,0v1.32a.83.83,0,0,0,.83.83V48.16ZM1.66,1.66H33.21V21.47L32,22.7a.83.83,0,0,0,0,1.17l.93.93,0,.1H31.55a.83.83,0,0,0-.83.83v3.32a.83.83,0,0,0,.83.83h1.32l0,.1-.93.93a.83.83,0,0,0,0,1.17l1.23,1.23V48.16H1.66V1.66ZM37.37,19.1a.83.83,0,0,0-.83.83v1.32l-.1,0-.93-.93a.83.83,0,0,0-.59-.24h0V1.66h2.49V19.1Zm9.13,5.81H45.18l0-.1.93-.93a.83.83,0,0,0,0-1.17l-2.35-2.35a.85.85,0,0,0-1.17,0l-.93.93-.1,0V19.93a.83.83,0,0,0-.83-.83H39V.83A.83.83,0,0,0,38.2,0H.83A.83.83,0,0,0,0,.83V49a.83.83,0,0,0,.83.83H38.2A.83.83,0,0,0,39,49V35.7h1.66a.83.83,0,0,0,.83-.83V33.56l.1,0,.93.93a.83.83,0,0,0,1.17,0l2.35-2.35a.83.83,0,0,0,0-1.17L45.14,30l0-.1H46.5a.83.83,0,0,0,.83-.83V25.74a.83.83,0,0,0-.83-.83ZM22.42,5.81V7.47h8.3V5.81Zm-18.27,0V7.47H20.76V5.81Zm7.47,3.32v1.66h19.1V9.13Zm-7.47,0v1.66H10V9.13Zm16.61,3.32v1.66h10V12.46Zm-16.61,0v1.66H19.1V12.46Zm0,3.32v1.66H30.72V15.78ZM22.42,19.1v1.66h8.3V19.1Zm-18.27,0v1.66H20.76V19.1ZM10,22.42v1.66H30.72V22.42Zm-5.81,0v1.66H8.3V22.42Zm0,3.32V27.4H16.61V25.74Z"/></g></g></g></svg>