<svg xmlns="http://www.w3.org/2000/svg" viewBox="0 0 48.8 31.65"><defs><style>.cls-1{fill:#191312;}.cls-2{fill:#f5f5f5;}</style></defs><title>icon 1</title><g id="Слой_2" data-name="Слой 2"><g id="_1280" data-name="1280"><g id="Body"><path class="cls-1" d="M37.33,18.86l-6.77-6.6h.67a.95.95,0,0,0,0-1.89H25a1,1,0,0,0-.47.12l-7.73,4.37A1.46,1.46,0,0,1,15,12.54l7.17-7.1a7.16,7.16,0,0,1,5.07-2.08H40.69V17l-3.37,1.82ZM38.11,24a1.24,1.24,0,0,1-1.76,0L33.21,21h0l-3.09-3a.95.95,0,1,0-1.32,1.36l4.92,4.78A1.24,1.24,0,0,1,32,25.87l-4.92-4.78,0,0-2.36-2.3a.95.95,0,1,0-1.32,1.36l4.92,4.78a1.24,1.24,0,1,1-1.73,1.78l-1.38-1.34-.1-.08-.05,0a3,3,0,0,0-2.12-.68,3,3,0,0,0-3.19-2.63,3,3,0,0,0-3.19-2.63,3,3,0,0,0-5.31-1.54l-.77.94-.18.24a5.45,5.45,0,0,0-2.13-.88V3.88h3.59l.18,0,7.74-1.51a11.57,11.57,0,0,1,3.94-.09A9.1,9.1,0,0,0,20.89,4.1l-7.17,7.1a3.36,3.36,0,0,0,4,5.31l7.52-4.25h2.59l10.25,10a1.24,1.24,0,0,1,0,1.76ZM23.95,28.26l-.77.94a1.12,1.12,0,0,1-1.73-1.42l.77-.94a1.11,1.11,0,0,1,.76-.4h.11a1.12,1.12,0,0,1,.86,1.83Zm-5.53-1.54h0a1.12,1.12,0,0,1-.15-1.57l.77-.94a1.12,1.12,0,0,1,1.73,1.42l-.77.94a1.12,1.12,0,0,1-1.57.15ZM15.22,24.1h0a1.12,1.12,0,0,1-.15-1.57l.77-.94a1.11,1.11,0,0,1,.76-.4h.11A1.12,1.12,0,0,1,17.57,23l-.77.94a1.12,1.12,0,0,1-1.57.15ZM12,21.47a1.12,1.12,0,0,1-.15-1.57l.77-.94a1.11,1.11,0,0,1,.76-.4h.11a1.12,1.12,0,0,1,.86,1.83l-.77.94a1.12,1.12,0,0,1-1.57.15ZM47.7.15H42.59a1.9,1.9,0,0,0-1.8,1.32H27.45l0,0a13.42,13.42,0,0,0-8.17-1L11.6,2H8.1A1.9,1.9,0,0,0,6.21.15H1.1a1,1,0,0,0-.95.95V7.19A.95.95,0,0,0,2,7.19V2H6.21V20H2V15A.95.95,0,1,0,.15,15v6a1,1,0,0,0,.95.95H6.21A1.9,1.9,0,0,0,8.11,20h0a3.52,3.52,0,0,1,1.21.6l.44.34a3,3,0,0,0,3,2.68h.2a3,3,0,0,0,3,2.63h.2a3,3,0,0,0,1.07,1.95h0a3,3,0,0,0,1.91.69h.21a3,3,0,0,0,3,2.64h.3a3,3,0,0,0,2-1.08l.77-.94a3,3,0,0,0,.51-.9,3.12,3.12,0,0,0,1.47.37h0a3.13,3.13,0,0,0,2.89-2l.33.32a3.14,3.14,0,0,0,5.17-1.29,3.14,3.14,0,0,0,3.58-5.06l-.66-.64,1.94-1V20a1.9,1.9,0,0,0,1.89,1.89H47.7a1,1,0,0,0,.95-.95V14.67a.95.95,0,0,0-1.89,0V20H42.59V17.61h0V2h4.17V7.33a.95.95,0,1,0,1.89,0V1.1A1,1,0,0,0,47.7.15Z"/><path class="cls-2" d="M22.31,31.65A3.16,3.16,0,0,1,19.2,29,3.16,3.16,0,0,1,16,26.39a3.08,3.08,0,0,1-2.08-.72,3.15,3.15,0,0,1-1.11-1.91A3.24,3.24,0,0,1,10.74,23a3.15,3.15,0,0,1-1.12-2l-.39-.3a3.43,3.43,0,0,0-1-.52,2,2,0,0,1-2,1.85H1.1A1.1,1.1,0,0,1,0,21V15a1.1,1.1,0,1,1,2.19,0v4.9H6.06V2.2H2.19v5A1.1,1.1,0,1,1,0,7.19V1.1A1.1,1.1,0,0,1,1.1,0H6.21a2,2,0,0,1,2,1.83H11.6L19.23.34a13.58,13.58,0,0,1,8.26,1H40.68A2,2,0,0,1,42.59,0H47.7a1.1,1.1,0,0,1,1.1,1.1V7.33a1.1,1.1,0,1,1-2.19,0V2.2H42.74V19.85h3.87V14.67a1.1,1.1,0,1,1,2.19,0V21A1.1,1.1,0,0,1,47.7,22H42.59a2,2,0,0,1-2-2v-.56L39,20.28l.51.5a3.29,3.29,0,0,1-2.29,5.64,3.31,3.31,0,0,1-1.31-.27,3.29,3.29,0,0,1-5.36,1.19l-.17-.16a3.29,3.29,0,0,1-2.94,1.91h0A3.3,3.3,0,0,1,26,28.78a3.13,3.13,0,0,1-.47.78l-.77.94a3.14,3.14,0,0,1-2.14,1.14Zm-2.85-2.94,0,.14a2.85,2.85,0,0,0,1,1.85,2.81,2.81,0,0,0,2.1.64,2.84,2.84,0,0,0,1.93-1l.77-.94a2.83,2.83,0,0,0,.48-.85l.06-.16.15.08a3,3,0,0,0,1.4.35l0,.15v-.15a3,3,0,0,0,2.75-1.92l.08-.21.49.48a3,3,0,0,0,4.92-1.23l.05-.17.16.08a3,3,0,0,0,1.33.31A3,3,0,0,0,39.3,21l-.8-.78,2.35-1.26V20a1.75,1.75,0,0,0,1.74,1.74H47.7a.8.8,0,0,0,.8-.8V14.67a.8.8,0,0,0-1.59,0v5.48H42.44V1.89h4.47V7.33a.8.8,0,0,0,1.59,0V1.1a.8.8,0,0,0-.8-.8H42.59a1.74,1.74,0,0,0-1.66,1.21l0,.1-13.51,0a13.29,13.29,0,0,0-8.1-1L11.63,2.13H8V2A1.74,1.74,0,0,0,6.21.3H1.1a.8.8,0,0,0-.8.8V7.19a.8.8,0,0,0,1.59,0V1.89H6.36V20.15H1.89V15A.8.8,0,0,0,.3,15v6a.8.8,0,0,0,.8.8H6.21A1.75,1.75,0,0,0,8,20v-.2l.19,0a3.66,3.66,0,0,1,1.26.63l.49.38v.06a2.85,2.85,0,0,0,3,2.54h.14l0,.14a2.86,2.86,0,0,0,3,2.5h.14l0,.14a2.85,2.85,0,0,0,1,1.85,2.81,2.81,0,0,0,2,.65Zm2.85,1a1.25,1.25,0,0,1-.8-.29,1.27,1.27,0,0,1-.17-1.79l.77-.94a1.27,1.27,0,1,1,2,1.61h0l-.77.93a1.26,1.26,0,0,1-.86.46Zm.78-3.17H23a1,1,0,0,0-.65.35l-.77.94a1,1,0,0,0,1.5,1.23l.77-.93a1,1,0,0,0-.13-1.36A1,1,0,0,0,23.09,26.58Zm4.3.61a1.37,1.37,0,0,1-1-.39L25,25.46,25,25.39l-.06-.05a2.88,2.88,0,0,0-2-.65h-.14l0-.14a2.85,2.85,0,0,0-1-1.85,2.89,2.89,0,0,0-2-.65h-.14l0-.14a2.86,2.86,0,0,0-3-2.5h-.14l0-.14a2.86,2.86,0,0,0-5-1.46l-.77.93-.17.23-.08.13-.13-.09a5.32,5.32,0,0,0-2.07-.85l-.12,0V3.73h3.89L19.59,2.2a11.78,11.78,0,0,1,4-.09l.5.08-.47.21A8.93,8.93,0,0,0,21,4.2l-7.17,7.1a3.21,3.21,0,0,0,3.83,5.07l7.55-4.27h2.7l0,0,10.25,10a1.39,1.39,0,0,1,0,2h0a1.38,1.38,0,0,1-1,.42,1.41,1.41,0,0,1-1-.39L30,18.06a.85.85,0,0,0-.57-.23.8.8,0,0,0-.54,1.37L33.81,24a1.39,1.39,0,1,1-1.94,2L27,21.2l.07-.13-.1.11-2.36-2.29a.87.87,0,0,0-.57-.23A.8.8,0,0,0,23.45,20l4.92,4.78a1.39,1.39,0,0,1-1,2.39Zm-4.3-2.8a3.15,3.15,0,0,1,2,.72l0,0,.11.09,1.38,1.34a1.08,1.08,0,0,0,.75.31h0A1.09,1.09,0,0,0,28.15,25l-4.92-4.78A1.1,1.1,0,0,1,24,18.35a1.08,1.08,0,0,1,.78.31l7.31,7.1A1.09,1.09,0,1,0,33.6,24.2l-4.92-4.78a1.1,1.1,0,0,1,.75-1.88h0a1.09,1.09,0,0,1,.76.31l6.25,6.07a1.13,1.13,0,0,0,.78.31,1.09,1.09,0,0,0,.77-.33h0a1.09,1.09,0,0,0,0-1.54l-10.2-9.94H25.28L17.8,16.63a3.55,3.55,0,0,1-2.65.33,3.19,3.19,0,0,1,.38.27,3.15,3.15,0,0,1,1.1,1.91,3.08,3.08,0,0,1,2.08.72,3.15,3.15,0,0,1,1.11,1.91,3.2,3.2,0,0,1,2.08.72A3.15,3.15,0,0,1,23,24.39ZM8.26,17.93a5.61,5.61,0,0,1,1.95.8l.1-.13.77-.94a3.17,3.17,0,0,1,3.23-1.05,3.5,3.5,0,0,1-.7-5.52L20.78,4A9.26,9.26,0,0,1,23,2.35a11.39,11.39,0,0,0-3.39.15L11.9,4l-.21,0H8.26Zm10.86,9.2a1.26,1.26,0,0,1-.8-.29h0a1.27,1.27,0,0,1-.17-1.79l.77-.94a1.27,1.27,0,1,1,2,1.61l-.77.94a1.26,1.26,0,0,1-.86.46ZM19.9,24a1,1,0,0,0-.75.35l-.77.94a1,1,0,0,0,.13,1.36h0a1,1,0,0,0,1.36-.13l.77-.94A1,1,0,0,0,19.9,24Zm-4,.54a1.26,1.26,0,0,1-.8-.29h0A1.27,1.27,0,0,1,15,22.43l.77-.94a1.26,1.26,0,0,1,.86-.46,1.28,1.28,0,0,1,.93.28,1.27,1.27,0,0,1,.17,1.79l-.77.93a1.26,1.26,0,0,1-.86.46Zm.78-3.17h-.1a1,1,0,0,0-.65.35l-.77.94A1,1,0,0,0,15.32,24h0a1,1,0,0,0,.71.22,1,1,0,0,0,.65-.35l.77-.93a1,1,0,0,0-.75-1.58Zm-4,.54a1.26,1.26,0,0,1-.8-.29,1.27,1.27,0,0,1-.17-1.79l.77-.94a1.26,1.26,0,0,1,.86-.46h.12a1.27,1.27,0,0,1,1,2.08l-.77.93a1.26,1.26,0,0,1-.86.46Zm.77-3.17h-.1a1,1,0,0,0-.65.35L12,20a1,1,0,0,0,1.5,1.23l.77-.93a1,1,0,0,0-.13-1.36A1,1,0,0,0,13.52,18.7ZM37.3,19,37.22,19l-7-6.86h1a.8.8,0,1,0,0-1.59H25a.8.8,0,0,0-.39.1L16.87,15a1.61,1.61,0,0,1-1.93-2.55l7.17-7.1a7.31,7.31,0,0,1,5.17-2.13H40.84V17.13Zm-6.38-6.63,6.43,6.27,3.19-1.72V3.51H27.29a7,7,0,0,0-5,2l-7.17,7.1a1.31,1.31,0,0,0,1.57,2.08l7.73-4.37a1.1,1.1,0,0,1,.54-.14h6.22a1.1,1.1,0,0,1,0,2.2Z"/><path class="cls-1" d="M47.7,10.08a.95.95,0,1,0,.67.28,1,1,0,0,0-.67-.28Z"/><path class="cls-2" d="M47.7,12.12a1.1,1.1,0,0,1-.78-1.87,1.13,1.13,0,0,1,1.55,0,1.1,1.1,0,0,1-.78,1.87Zm0-1.89a.8.8,0,0,0-.56,1.36.83.83,0,0,0,1.13,0,.8.8,0,0,0,0-1.13A.8.8,0,0,0,47.7,10.23Z"/><path class="cls-1" d="M1.1,12A.95.95,0,1,0,.15,11,.95.95,0,0,0,1.1,12Z"/><path class="cls-2" d="M1.1,12.12a1.1,1.1,0,0,1-.78-1.87,1.13,1.13,0,0,1,1.55,0,1.1,1.1,0,0,1-.78,1.87Zm0-1.89a.8.8,0,0,0-.8.8.81.81,0,0,0,.23.56.83.83,0,0,0,1.13,0,.8.8,0,0,0,0-1.13A.8.8,0,0,0,1.1,10.23Z"/></g></g></g></svg>