<svg xmlns="http://www.w3.org/2000/svg" viewBox="0 0 83.97 83.97"><defs><style>.cls-1{fill:#1b52d3;}.cls-2{fill:#fff;}</style></defs><title>icon 8</title><g id="Слой_2" data-name="Слой 2"><g id="_1280" data-name="1280"><g id="Body"><path class="cls-1" d="M4,36V10H14v6.4c0,.89,1.22,1.6,2.12,1.6H22V36ZM18,12.61,19.88,15H18V12.61Zm7,24.88V33H29.6c.89,0,1.39-1.06,1.39-2V20a1.5,1.5,0,1,0-3,0v9H25V16.39a1.48,1.48,0,0,0-.27-1.14L17.16,7.51a1.44,1.44,0,0,0-1-.52H10V4H28V8.37a1.5,1.5,0,1,0,3,0V2.22C31,1.33,30.49,1,29.6,1H8.4C7.5,1,7,1.33,7,2.22V7H2.57A1.65,1.65,0,0,0,1,8.69v28.8A1.47,1.47,0,0,0,2.57,39h21.2c.89,0,1.22-.59,1.22-1.48Z"/><path class="cls-2" d="M23.77,40H2.57A2.85,2.85,0,0,1,0,37.49V8.69C0,7.5,1.38,7,2.57,7H6V2.22A2.43,2.43,0,0,1,8.4,0H29.6A2.43,2.43,0,0,1,32,2.22V8.37a2.53,2.53,0,0,1-5,0V4H11V7h5.12a2,2,0,0,1,1.53.41L25.33,15A1.94,1.94,0,0,1,26,16.39V29h1V20a2.53,2.53,0,0,1,5,0V31a2.21,2.21,0,0,1-2.39,2H26v4.51A2.51,2.51,0,0,1,23.77,40ZM2.57,8C2,8,1,8.1,1,8.69v28.8A2,2,0,0,0,2.57,39h21.2c.6,0,1.22-.89,1.22-1.48V32H29.6c.6,0,1.39-.36,1.39-1V20a1,1,0,1,0-2,0V30H25V16.39a1.16,1.16,0,0,0-.38-.76l-7.7-7.51c-.2-.21-.51-.13-.8-.13H9V3H29V8.37a1,1,0,1,0,2,0V2.22A1.52,1.52,0,0,0,29.6,1H8.4A1.53,1.53,0,0,0,7,2.22V8ZM23,36H4V10H15v6.4c0,.6.52.6,1.12.6H23ZM5,35H22V19H16.11C14.92,19,14,17.58,14,16.39V11H5ZM21.17,15H17V11.31Zm-2.91-.75h.32l-.32-.32Z"/><path class="cls-1" d="M29.6,12.48a1.62,1.62,0,1,0,1.14.47,1.63,1.63,0,0,0-1.14-.47Z"/><path class="cls-2" d="M29.6,16.25a2.16,2.16,0,0,1-1.52-3.68,2.23,2.23,0,0,1,3,0,2.16,2.16,0,0,1-1.52,3.68Zm0-3.23a1.08,1.08,0,0,0-.76,1.84,1.12,1.12,0,0,0,1.53,0A1.08,1.08,0,0,0,29.6,13Z"/><path class="cls-1" d="M81,29H78V16.39a1.61,1.61,0,0,0-.46-1.14L69.86,7.51A1.65,1.65,0,0,0,68.71,7H63V4H81V29ZM70,12.61,72.48,15H70V12.61ZM57,36V10H67v6.4A1.71,1.71,0,0,0,68.71,18H75V36ZM82.2,1H61c-.89,0-2,.33-2,1.22V7H55.17C54.28,7,54,7.8,54,8.69v28.8c0,.89.3,1.48,1.19,1.48h21.2A1.49,1.49,0,0,0,78,37.49V33H82.2A2.08,2.08,0,0,0,84,31V2.22C84,1.33,83.09,1,82.2,1Z"/><path class="cls-2" d="M76.37,40H55.17A2.49,2.49,0,0,1,53,37.49V8.69C53,7.5,54,7,55.17,7H59V2.22A2.1,2.1,0,0,1,61,0H82.2C83.39,0,84,1,84,2.22V31c0,1.19-.58,2-1.77,2H79v4.51A2.88,2.88,0,0,1,76.37,40ZM55.17,8c-.6,0-1.19.1-1.19.7v28.8c0,.6.59,1.48,1.19,1.48h21.2c.6,0,.6-.89.6-1.48V32H82.2c.6,0,.77-.36.77-1V2.22C83,1.63,82.8,1,82.2,1H61a1.16,1.16,0,0,0-1,1.22V8ZM75,36H56V10H68v6.4c0,.6.14.6.74.6H75ZM57,35H74V19H68.71C67.52,19,67,17.58,67,16.39V11H57Zm24-5H77V16.39c0-.28.13-.56-.07-.76L69.36,8.12C69.15,7.92,69,8,68.71,8H62V3H81Zm-2-1h1V4H63V7h5.73a2,2,0,0,1,1.53.41L78.12,15A2.18,2.18,0,0,1,79,16.39Zm-5.2-14H70V11.31Zm-2.9-.75h.32l-.32-.32Z"/><path class="cls-1" d="M42.49,31.5A1.52,1.52,0,0,0,44,29.88V23.09a1.5,1.5,0,1,0-3,0v6.79a1.52,1.52,0,0,0,1.5,1.62Z"/><path class="cls-2" d="M42.49,32A2.48,2.48,0,0,1,40,29.88V23.09a2.53,2.53,0,0,1,5,0v6.79A2.48,2.48,0,0,1,42.49,32ZM42,22a1,1,0,0,0-1,1.08v6.79a1,1,0,1,0,2,0V23.09A1,1,0,0,0,42,22Z"/><path class="cls-1" d="M42.38,37.27a1.62,1.62,0,1,0-1.14-.47,1.62,1.62,0,0,0,1.14.47Z"/><path class="cls-2" d="M42.38,37.81a2.15,2.15,0,0,1-1.52-3.68,2.23,2.23,0,0,1,3,0,2.16,2.16,0,0,1-1.52,3.68Zm0-3.24a1.08,1.08,0,0,0-.76,1.84,1.12,1.12,0,0,0,1.53,0,1.08,1.08,0,0,0-.76-1.85Z"/><path class="cls-1" d="M35.12,37.38a1.62,1.62,0,0,0,2.29-2.29L35.3,33A1.62,1.62,0,1,0,33,35.27l2.11,2.11Z"/><path class="cls-2" d="M36.26,38.39a2.14,2.14,0,0,1-1.52-.63l-2.11-2.11A2.16,2.16,0,0,1,34.15,32h0a2.14,2.14,0,0,1,1.52.63l2.11,2.11a2.16,2.16,0,0,1-1.52,3.68ZM34.15,33a1.08,1.08,0,0,0-.76,1.84L35.5,37A1.1,1.1,0,0,0,37,37a1.08,1.08,0,0,0,0-1.53l-2.11-2.11a1.07,1.07,0,0,0-.76-.32Z"/><path class="cls-1" d="M48.34,37.84a1.61,1.61,0,0,0,1.14-.47l2.18-2.18a1.62,1.62,0,0,0-2.29-2.29l-2.18,2.18a1.62,1.62,0,0,0,1.14,2.76Z"/><path class="cls-2" d="M48.34,38.38a2.16,2.16,0,0,1-1.52-3.68L49,32.52a2.16,2.16,0,0,1,3,3l-2.18,2.18A2.15,2.15,0,0,1,48.34,38.38ZM50.52,33a1.08,1.08,0,0,0-.76.32l-2.18,2.18a1.08,1.08,0,0,0,0,1.53,1.11,1.11,0,0,0,1.53,0l2.18-2.18A1.08,1.08,0,0,0,50.52,33Z"/><path class="cls-1" d="M52.17,56.6a5.53,5.53,0,0,0-6.76,3.89L44,65.78V60.24c0-.15,0-.31,0-.46a1.62,1.62,0,0,0,0-.24V49.13a11.52,11.52,0,0,1,9.79,8.19,5.44,5.44,0,0,0-1.61-.73ZM38.61,54.74A5.61,5.61,0,0,0,33,60.24V62H30V61c0-6.05,5-11.07,11-11.86v6.1a7.29,7.29,0,0,0-2.38-.49Zm-7.25,15.7a2.21,2.21,0,0,0-1.37-.5v-5h3v6.66c0-.46-1.09-.86-1.63-1.17Zm33.47-1a5.48,5.48,0,0,0-2.3-.12l.07-.28A5.47,5.47,0,0,0,62,64.91a5.11,5.11,0,0,0-3.15-2.57c-.37-.1-.91-.16-.91-.18V61A15.29,15.29,0,0,0,44,45.87V42a1.5,1.5,0,1,0-3,0v3.83A15.29,15.29,0,0,0,27,61v9a6.55,6.55,0,0,0-3,2.5,5.45,5.45,0,0,0-.51,4.18L25,82.23a1.63,1.63,0,0,0,1.57,1.2,1.66,1.66,0,0,0,.42-.05,1.62,1.62,0,0,0,1.15-2l-1.49-5.61A2.27,2.27,0,0,1,31,74.62l2,7.47a1.5,1.5,0,0,0,1.48,1.35A1.52,1.52,0,0,0,36,81.81V60.24a2.51,2.51,0,0,1,5,0V81.81a1.5,1.5,0,1,0,3,0V78.28l4.55-17a2.28,2.28,0,0,1,4.4,1.18l-4.6,17.16a1.6,1.6,0,0,0,0,.2l-.41,1.54a1.62,1.62,0,0,0,3.13.84l4.06-15.16a2.27,2.27,0,0,1,4.39,1.18L58.2,73c0,.13-.09.26-.12.4l-2.1,8v0h0s0,.08,0,.11a1.61,1.61,0,0,0,1.16,1.87,1.59,1.59,0,0,0,.42.06A1.62,1.62,0,0,0,59,82.33l0-.08h0L61.29,74a2.27,2.27,0,0,1,4.3,1.43l-1.6,6a1.62,1.62,0,0,0,3.13.83l1.59-6a5.51,5.51,0,0,0-3.9-6.75Z"/><path class="cls-2" d="M65.57,84a2.16,2.16,0,0,1-2.09-2.71l1.6-6a1.73,1.73,0,0,0-3.28-1.1L59.55,82.5a2.15,2.15,0,0,1-4.16-1.09s0-.09,0-.15l2.13-8c0-.15.09-.29.14-.44L59,68.11a1.74,1.74,0,0,0-3.35-.9L51.53,82.37a2.16,2.16,0,0,1-4.17-1.12l.41-1.53a1.06,1.06,0,0,1,0-.2l4.6-17.16a1.74,1.74,0,0,0-2.54-2c-.4.23-.47.61-.59,1.05L45,78.35v3.46a2.53,2.53,0,0,1-5,0V60.24a1.52,1.52,0,1,0-3,0V81.82A2.26,2.26,0,0,1,34.72,84a2.21,2.21,0,0,1-2.18-1.8l-2-7.42a1.76,1.76,0,0,0-2.15-1.23,1.74,1.74,0,0,0-1.23,2.12l1.49,5.61A2.16,2.16,0,0,1,27.1,83.9a2.19,2.19,0,0,1-2.64-1.53L23,76.77a6.07,6.07,0,0,1,.78-4.58A4.43,4.43,0,0,1,27,69.56V61c0-7.91,5-14.53,13-15.6V42a2.53,2.53,0,0,1,5,0v3.35c7,1.07,13,7.69,13,15.6v.69s.55.08.78.15a6.08,6.08,0,0,1,3.71,2.82,6,6,0,0,1,.73,4.12,6.05,6.05,0,0,1,6,7.61l-1.59,6A2.16,2.16,0,0,1,65.57,84ZM63.4,72a2.81,2.81,0,0,1,2.71,3.54l-1.6,6a1.08,1.08,0,0,0,.77,1.32,1.1,1.1,0,0,0,1.32-.77l1.6-6A5,5,0,0,0,64.69,70h0a4.88,4.88,0,0,0-2.08-.1l-.82.13L62.08,69a5,5,0,0,0-3.52-6.09,5.41,5.41,0,0,0-1-.16l-.55,0V61A14.81,14.81,0,0,0,43.67,46.4L43,46.35V42a1,1,0,1,0-2,0v4.31l-.18.05A14.38,14.38,0,0,0,28,61v9.35l-.52.12a5.1,5.1,0,0,0-2.9,2.26A5,5,0,0,0,24,76.49l1.47,5.61a1.09,1.09,0,0,0,1.31.77,1.08,1.08,0,0,0,.76-1.32L26.1,75.93a2.81,2.81,0,0,1,5.43-1.45l2,7.47a1.26,1.26,0,0,0,1.23,1A1.22,1.22,0,0,0,36,81.82V60.24a2.52,2.52,0,1,1,5,0V81.82a1.23,1.23,0,0,0,1.24,1.08,1.15,1.15,0,0,0,1.16-1.08l.06-3.67,4.56-17a2.82,2.82,0,0,1,5.45,1.46L48.86,79.8a1,1,0,0,0,0,.13l-.43,1.6a1.08,1.08,0,0,0,2.09.56l4.06-15.16A2.81,2.81,0,0,1,60,68.39l-1.27,4.73c-.05.16-.09.28-.12.4l-2.15,8.09a1.08,1.08,0,0,0,2.08.54l2.24-8.34A2.84,2.84,0,0,1,63.4,72ZM34,73.05,32.81,72a5.53,5.53,0,0,0-1.4-1.06h0a5,5,0,0,0-1-.45L30,70.33V64.95h4ZM31.63,70c.21.12.36.26.36.4V65.95H31v3.6c0,.12.35.26.64.42ZM43,69.86V60.24c0-.14.23-.28.22-.41l.11-.06-.17-.06c0-.05-.17-.11-.17-.16v-11l.85.08a12.73,12.73,0,0,1,10.34,8.56l.53,1.46-1.25-.85A4.84,4.84,0,0,0,52,57.11h0a5.23,5.23,0,0,0-6.32,3.51ZM45,59.8c0,.15,0,.29,0,.44v1.45l.14-1.34a5.94,5.94,0,0,1,7.3-4.27h0c.16,0,.48.09.64.15A12.53,12.53,0,0,0,45,49.76v9.78A2.07,2.07,0,0,1,45,59.8ZM34,63H30V61A12.36,12.36,0,0,1,40.59,48.6l.39-.08v7.55l-.6-.35a3.61,3.61,0,0,0-1.74-.44,4.72,4.72,0,0,0-4.66,5Zm-3-1h1V60.24a6.15,6.15,0,0,1,6.15-6c.59,0,1.84.08,1.84.25V49.76A11.56,11.56,0,0,0,31,61Z"/><path class="cls-1" d="M15.81,20H9.72a1.5,1.5,0,1,0,0,3h6.09a1.5,1.5,0,1,0,0-3Z"/><path class="cls-2" d="M15.81,23H9.72a2,2,0,1,1,0-4h6.09a2,2,0,1,1,0,4ZM9.72,20a1,1,0,1,0,0,2h6.09a1,1,0,1,0,0-2Z"/><path class="cls-1" d="M15.81,26H9.72a1.5,1.5,0,1,0,0,3h6.09a1.5,1.5,0,1,0,0-3Z"/><path class="cls-2" d="M15.81,30H9.72a2.53,2.53,0,0,1,0-5h6.09a2.53,2.53,0,0,1,0,5ZM9.72,27a1,1,0,1,0,0,2h6.09a1,1,0,1,0,0-2Z"/><path class="cls-1" d="M68.82,20H62.73a1.5,1.5,0,1,0,0,3h6.09a1.5,1.5,0,1,0,0-3Z"/><path class="cls-2" d="M68.82,23H62.73a2,2,0,1,1,0-4h6.09a2,2,0,1,1,0,4Zm-6.09-3a1,1,0,1,0,0,2h6.09a1,1,0,1,0,0-2Z"/><path class="cls-1" d="M68.82,26H62.73a1.5,1.5,0,1,0,0,3h6.09a1.5,1.5,0,1,0,0-3Z"/><path class="cls-2" d="M68.82,30H62.73a2.53,2.53,0,0,1,0-5h6.09a2.53,2.53,0,0,1,0,5Zm-6.09-3a1,1,0,1,0,0,2h6.09a1,1,0,1,0,0-2Z"/></g></g></g></svg>