<svg xmlns="http://www.w3.org/2000/svg" viewBox="0 0 80.98 80.98"><defs><style>.cls-1{fill:#1b52d3;stroke:#fff;stroke-miterlimit:10;}</style></defs><title>icon 10</title><g id="Слой_2" data-name="Слой 2"><g id="_1280" data-name="1280"><g id="Body"><path class="cls-1" d="M73.21,76.84H7.77a3.64,3.64,0,0,1-3.64-3.64V68.56a7.84,7.84,0,0,0,3.83,1H73a7.84,7.84,0,0,0,3.83-1v4.65a3.64,3.64,0,0,1-3.64,3.64ZM4.67,61,19.85,39.15a5.71,5.71,0,0,1,4.68-2.3H56.45a5.71,5.71,0,0,1,4.67,2.3L76.31,61a2.89,2.89,0,0,1,.54,1.66A3.59,3.59,0,0,1,73,65.94H8a3.59,3.59,0,0,1-3.83-3.27A2.89,2.89,0,0,1,4.67,61ZM19.85,30.92,4.67,9.06A2.89,2.89,0,0,1,4.14,7.4,3.59,3.59,0,0,1,8,4.14H73A3.59,3.59,0,0,1,76.84,7.4a2.89,2.89,0,0,1-.54,1.66L61.13,30.92a5.72,5.72,0,0,1-4.68,2.3H24.52a5.71,5.71,0,0,1-4.67-2.3Zm59.44,28L64.11,37.07A8.65,8.65,0,0,0,62,35a8.66,8.66,0,0,0,2.1-2L79.3,11.13A6.52,6.52,0,0,0,80.48,7.4,7.21,7.21,0,0,0,73,.5H8A7.21,7.21,0,0,0,.5,7.4a6.52,6.52,0,0,0,1.18,3.73L16.87,33A8.64,8.64,0,0,0,19,35a8.66,8.66,0,0,0-2.1,2L1.68,58.94A6.52,6.52,0,0,0,.5,62.67a6.3,6.3,0,0,0,.1.94,1.77,1.77,0,0,0-.1.51v9.09a7.28,7.28,0,0,0,7.27,7.27H73.21a7.28,7.28,0,0,0,7.27-7.27V64.12a1.77,1.77,0,0,0-.1-.51,6.31,6.31,0,0,0,.1-.94,6.52,6.52,0,0,0-1.18-3.73Z"/><path class="cls-1" d="M25.28,44.08l30.23,0L65.76,58.67H15.15L25.28,44.08ZM11.68,62.3H69.27a1.82,1.82,0,0,0,1.48-2.87L57.94,41.26a1.81,1.81,0,0,0-1.48-.77l-32.13,0h0a1.82,1.82,0,0,0-1.49.78L10.18,59.45a1.82,1.82,0,0,0,1.49,2.85Z"/><path class="cls-1" d="M60.48,71.39a1.82,1.82,0,1,1-1.82,1.82,1.82,1.82,0,0,1,1.82-1.82Z"/><path class="cls-1" d="M67.75,71.39a1.82,1.82,0,1,1-1.82,1.82,1.82,1.82,0,0,1,1.82-1.82Z"/></g></g></g></svg>