<svg xmlns="http://www.w3.org/2000/svg" viewBox="0 0 47.43 47.25"><defs><style>.cls-1{fill:#1d1d1b;}.cls-2{fill:#f5f5f5;}</style></defs><title>icon 4</title><g id="Слой_2" data-name="Слой 2"><g id="_1280" data-name="1280"><g id="Body"><path class="cls-1" d="M7,2h5.49V7.52H7V2ZM6.05,9.35h7.32a.92.92,0,0,0,.92-.92V1.11A.92.92,0,0,0,13.37.2H6.05a.92.92,0,0,0-.92.92V8.43a.92.92,0,0,0,.92.92Z"/><path class="cls-2" d="M13.37,9.55H6.05A1.12,1.12,0,0,1,4.94,8.43V1.12A1.12,1.12,0,0,1,6.05,0h7.32a1.12,1.12,0,0,1,1.12,1.12V8.43A1.12,1.12,0,0,1,13.37,9.55ZM6.05.4a.72.72,0,0,0-.71.71V8.43a.72.72,0,0,0,.71.71h7.32a.72.72,0,0,0,.71-.71V1.12A.72.72,0,0,0,13.37.4Zm6.61,7.32H6.77V1.83h5.89Zm-5.49-.4h5.09V2.23H7.17Z"/><path class="cls-1" d="M17.95,2h5.49V7.52H17.95V2ZM17,9.35h7.32a.92.92,0,0,0,.91-.92V1.11A.92.92,0,0,0,24.35.2H17a.92.92,0,0,0-.92.92V8.43a.92.92,0,0,0,.92.92Z"/><path class="cls-2" d="M24.35,9.55H17a1.12,1.12,0,0,1-1.12-1.12V1.12A1.12,1.12,0,0,1,17,0h7.32a1.12,1.12,0,0,1,1.12,1.12V8.43A1.12,1.12,0,0,1,24.35,9.55ZM17,.4a.72.72,0,0,0-.71.71V8.43a.72.72,0,0,0,.71.71h7.32a.72.72,0,0,0,.71-.71V1.12A.72.72,0,0,0,24.35.4Zm6.6,7.32H17.75V1.83h5.89Zm-5.49-.4h5.09V2.23H18.15Z"/><path class="cls-1" d="M34.42,7.52H28.93V2h5.49V7.52ZM35.33.2H28a.92.92,0,0,0-.92.92V8.43a.92.92,0,0,0,.92.92h7.32a.92.92,0,0,0,.91-.92V1.11A.92.92,0,0,0,35.33.2Z"/><path class="cls-2" d="M35.33,9.55H28A1.12,1.12,0,0,1,26.9,8.43V1.12A1.12,1.12,0,0,1,28,0h7.32a1.12,1.12,0,0,1,1.12,1.12V8.43A1.12,1.12,0,0,1,35.33,9.55ZM28,.4a.72.72,0,0,0-.71.71V8.43a.72.72,0,0,0,.71.71h7.32A.72.72,0,0,0,36,8.43V1.12A.72.72,0,0,0,35.33.4Zm6.6,7.32H28.73V1.83h5.89Zm-5.49-.4h5.09V2.23H29.13Z"/><path class="cls-1" d="M34.42,18.5h-2A13.55,13.55,0,0,0,28.93,15V13h5.49V18.5Zm-24.48,0H7V13h5.49v2.7q-.45.38-.87.8a13.57,13.57,0,0,0-1.65,2Zm13.5,20.93v1H17.95V39.23a13.65,13.65,0,0,0,5.49.19Zm7.3-3.77q.33-.33.64-.69h3v5.49H28.93V37.18a13.57,13.57,0,0,0,1.81-1.52Zm4.59-24.48H28a.92.92,0,0,0-.92.91v1.81a13.6,13.6,0,0,0-12.81.51V12.09a.92.92,0,0,0-.92-.91H6.05a.92.92,0,0,0-.92.91v7.32a.92.92,0,0,0,.92.92H8.91a13.57,13.57,0,0,0,2.69,15.33q.46.46.95.86L4.22,44.84A1.28,1.28,0,0,1,2.4,43l3.68-3.68a.92.92,0,1,0-1.29-1.29L1.11,41.74a3.11,3.11,0,1,0,4.4,4.4L14,37.6a13.43,13.43,0,0,0,2.07,1v2.73a.92.92,0,0,0,.92.91h7.32a.92.92,0,0,0,.91-.91V39a13.48,13.48,0,0,0,1.83-.73v3.12a.92.92,0,0,0,.92.91h7.32a.92.92,0,0,0,.91-.91V34.06a.92.92,0,0,0-.91-.92H32.72a13.47,13.47,0,0,0,1.45-3.28.91.91,0,0,0-1.76-.51,11.71,11.71,0,1,1,.13-6.06.92.92,0,0,0,1.78-.43,13.46,13.46,0,0,0-.89-2.53h1.91a.92.92,0,0,0,.91-.92V12.09a.92.92,0,0,0-.91-.91Z"/><path class="cls-2" d="M3.31,47.25A3.31,3.31,0,0,1,1,41.6l3.68-3.68a1.14,1.14,0,0,1,1.58,0,1.12,1.12,0,0,1,0,1.58L2.55,43.17a1.08,1.08,0,0,0,0,1.53,1.11,1.11,0,0,0,1.53,0l8.17-8.17c-.27-.23-.54-.48-.79-.73A13.79,13.79,0,0,1,8.6,20.53H6.05a1.12,1.12,0,0,1-1.12-1.12V12.09A1.12,1.12,0,0,1,6.05,11h7.32a1.12,1.12,0,0,1,1.12,1.12v2a13.71,13.71,0,0,1,12.41-.48v-1.5A1.12,1.12,0,0,1,28,11h7.32a1.12,1.12,0,0,1,1.12,1.12v7.32a1.12,1.12,0,0,1-1.12,1.12h-1.6a13.69,13.69,0,0,1,.78,2.28,1.12,1.12,0,0,1-2.17.53,11.5,11.5,0,1,0-.12,6,1.12,1.12,0,0,1,1.38-.76,1.12,1.12,0,0,1,.76,1.38,13.66,13.66,0,0,1-1.29,3h2.26a1.12,1.12,0,0,1,1.12,1.12v7.32a1.12,1.12,0,0,1-1.12,1.12H28a1.12,1.12,0,0,1-1.12-1.12V38.57a13.59,13.59,0,0,1-1.43.56v2.25a1.12,1.12,0,0,1-1.12,1.12H17a1.12,1.12,0,0,1-1.12-1.12V38.78a13.76,13.76,0,0,1-1.84-.93L5.65,46.28A3.29,3.29,0,0,1,3.31,47.25ZM5.43,38a.71.71,0,0,0-.51.21L1.25,41.88A2.91,2.91,0,0,0,5.37,46L14,37.35l.13.08a13.27,13.27,0,0,0,2,1l.13,0v2.86a.72.72,0,0,0,.71.71h7.32a.72.72,0,0,0,.71-.71V38.84l.14,0a13.47,13.47,0,0,0,1.8-.72l.29-.14v3.44a.72.72,0,0,0,.71.71h7.32a.72.72,0,0,0,.71-.71V34.06a.72.72,0,0,0-.71-.72h-3l.19-.3A13.31,13.31,0,0,0,34,29.8a.72.72,0,0,0-.49-.89A.69.69,0,0,0,33,29a.71.71,0,0,0-.34.43,11.91,11.91,0,1,1,.13-6.16.71.71,0,0,0,1.39-.34,13.31,13.31,0,0,0-.88-2.49l-.13-.29h2.22a.72.72,0,0,0,.71-.71V12.09a.72.72,0,0,0-.71-.71H28a.72.72,0,0,0-.71.71v2.13L27,14.09a13.32,13.32,0,0,0-12.62.5l-.3.18V12.09a.72.72,0,0,0-.71-.71H6.05a.72.72,0,0,0-.71.71v7.32a.72.72,0,0,0,.71.71H9.22l-.13.29a13.39,13.39,0,0,0,2.65,15.1c.29.29.61.58.93.85l.17.14L4.36,45a1.52,1.52,0,0,1-2.09,0,1.48,1.48,0,0,1,0-2.09l3.68-3.68a.72.72,0,0,0,0-1A.71.71,0,0,0,5.43,38Zm29.19,2.67H28.73V37.07l.09-.06a13.4,13.4,0,0,0,1.79-1.5h0c.22-.22.43-.44.63-.68l.06-.07h3.33Zm-5.49-.4h5.09V35.17H31.47q-.28.32-.59.63h0a13.94,13.94,0,0,1-1.75,1.48Zm-5.49.4H17.75V39L18,39a13.49,13.49,0,0,0,5.41.19l.23,0Zm-5.49-.4h5.09v-.6a13.89,13.89,0,0,1-5.09-.18ZM34.62,18.7H32.28l-.06-.09a13.36,13.36,0,0,0-3.41-3.46l-.09-.06V12.81h5.89Zm-2.13-.4h1.73V13.21H29.13v1.67a13.94,13.94,0,0,1,1.75,1.48A13.79,13.79,0,0,1,32.49,18.3Zm-22.44.4H6.77V12.81h5.89v3l-.07.06c-.3.25-.59.52-.86.78a13.34,13.34,0,0,0-1.62,2Zm-2.88-.4H9.84a13.83,13.83,0,0,1,1.61-1.94c.26-.25.53-.51.81-.75V13.21H7.17Z"/><path class="cls-1" d="M45.4,18.5H39.91V13H45.4V18.5Zm.92-7.32H39a.92.92,0,0,0-.91.91v7.32a.92.92,0,0,0,.91.92h7.32a.92.92,0,0,0,.91-.92V12.09a.92.92,0,0,0-.91-.91Z"/><path class="cls-2" d="M46.32,20.53H39a1.12,1.12,0,0,1-1.12-1.12V12.09A1.12,1.12,0,0,1,39,11h7.32a1.12,1.12,0,0,1,1.12,1.12v7.32A1.12,1.12,0,0,1,46.32,20.53ZM39,11.38a.72.72,0,0,0-.71.71v7.32a.72.72,0,0,0,.71.71h7.32a.72.72,0,0,0,.71-.71V12.09a.72.72,0,0,0-.71-.71ZM45.6,18.7H39.71V12.81H45.6Zm-5.49-.4H45.2V13.21H40.11Z"/><path class="cls-1" d="M45.4,29.48H39.91V24H45.4v5.49Zm.92-7.32H39a.92.92,0,0,0-.91.91V30.4a.92.92,0,0,0,.91.92h7.32a.92.92,0,0,0,.91-.92V23.08a.92.92,0,0,0-.91-.91Z"/><path class="cls-2" d="M46.32,31.51H39a1.12,1.12,0,0,1-1.12-1.12V23.08A1.12,1.12,0,0,1,39,22h7.32a1.12,1.12,0,0,1,1.12,1.12V30.4A1.12,1.12,0,0,1,46.32,31.51ZM39,22.36a.72.72,0,0,0-.71.71V30.4a.72.72,0,0,0,.71.71h7.32A.72.72,0,0,0,47,30.4V23.08a.72.72,0,0,0-.71-.71Zm6.61,7.32H39.71V23.79H45.6Zm-5.49-.4H45.2V24.19H40.11Z"/><path class="cls-1" d="M45.4,40.46H39.91V35H45.4v5.49Zm.92-7.32H39a.92.92,0,0,0-.91.92v7.32a.92.92,0,0,0,.91.91h7.32a.92.92,0,0,0,.91-.91V34.06a.92.92,0,0,0-.91-.92Z"/><path class="cls-2" d="M46.32,42.49H39a1.12,1.12,0,0,1-1.12-1.12V34.06A1.12,1.12,0,0,1,39,32.94h7.32a1.12,1.12,0,0,1,1.12,1.12v7.32A1.12,1.12,0,0,1,46.32,42.49ZM39,33.34a.72.72,0,0,0-.71.72v7.32a.72.72,0,0,0,.71.71h7.32a.72.72,0,0,0,.71-.71V34.06a.72.72,0,0,0-.71-.72Zm6.61,7.32H39.71V34.77H45.6Zm-5.49-.4H45.2V35.17H40.11Z"/><path class="cls-1" d="M8.67,36.76A.91.91,0,1,0,8,37a.92.92,0,0,0,.65-.27Z"/><path class="cls-2" d="M8,37.23a1.12,1.12,0,0,1-.79-1.9,1.16,1.16,0,0,1,1.58,0,1.11,1.11,0,0,1,0,1.58h0A1.13,1.13,0,0,1,8,37.23ZM8,35.4a.71.71,0,0,0-.51,1.22.74.74,0,0,0,1,0A.71.71,0,0,0,8,35.4Z"/><path class="cls-1" d="M32.88,26.08v.08a.92.92,0,0,0,.91.92h0a.92.92,0,0,0,.91-.91v-.09a.92.92,0,1,0-1.83,0Z"/><path class="cls-2" d="M33.79,27.28a1.12,1.12,0,0,1-1.12-1.12v-.08a1.12,1.12,0,1,1,2.23,0v.09A1.12,1.12,0,0,1,33.79,27.28Zm0-1.91a.72.72,0,0,0-.72.71v.08a.71.71,0,1,0,1.43,0v-.09A.72.72,0,0,0,33.79,25.37Z"/><path class="cls-1" d="M26.75,31.09V21.42a.91.91,0,0,0-.17-.53,7.5,7.5,0,0,1,.17,10.2Zm-8.61,1.86h6.05a7.52,7.52,0,0,1-6.05,0ZM14.31,23v6.09a7.52,7.52,0,0,1,0-6.09Zm12.06-2.36a.91.91,0,0,0-.53-.17H16.15a7.51,7.51,0,0,1,10.22.17ZM16.14,22.33h8.78v8.78H16.14V22.33Zm-1.57-2.85a9.33,9.33,0,1,0,13.2,0,9.27,9.27,0,0,0-13.2,0Z"/><path class="cls-2" d="M21.17,35.61a9.53,9.53,0,0,1-6.74-16.27h0a9.53,9.53,0,1,1,6.74,16.27Zm0-18.66a9.07,9.07,0,0,0-6.46,2.67h0A9.14,9.14,0,1,0,21.17,17Zm0,16.83a7.65,7.65,0,0,1-3.11-.65l-.87-.38h8l-.87.38A7.65,7.65,0,0,1,21.17,33.78Zm-1.85-.64a7.41,7.41,0,0,0,3.7,0Zm7.23-1.54V21.42a.72.72,0,0,0-.13-.42l.31-.25a7.7,7.7,0,0,1,.17,10.48Zm.4-10v8.92a7.3,7.3,0,0,0,0-8.92Zm-1.83,9.7H15.94V22.13h9.18Zm-8.78-.4h8.38V22.53H16.34Zm-1.83-.85-.38-.86a7.72,7.72,0,0,1,0-6.25l.38-.86Zm-.4-5.86a7.39,7.39,0,0,0,0,3.75Zm12.14-3.37a.71.71,0,0,0-.41-.13H15.63l.39-.35a7.71,7.71,0,0,1,10.49.17ZM16.7,20.3h8.93a7.32,7.32,0,0,0-8.93,0Z"/></g></g></g></svg>