<svg xmlns="http://www.w3.org/2000/svg" viewBox="0 0 49.43 49.79"><defs><style>.cls-1{fill:#fff;}</style></defs><title>icon 11</title><g id="Слой_2" data-name="Слой 2"><g id="_1280" data-name="1280"><g id="Body"><path class="cls-1" d="M35.14,42.87l.36-.45A45,45,0,0,0,49.43,9.87a4.13,4.13,0,0,0-3.68-4.07A12.3,12.3,0,0,0,23.87,7.89,12.38,12.38,0,0,0,11.75,0,12.49,12.49,0,0,0,0,12.67,18.49,18.49,0,0,0,7.28,27.33l1.86,1.41A28.45,28.45,0,0,0,5,42.79H4.11c-.45,0-1.25.37-1.25.82v4.94a1.73,1.73,0,0,0,1.25,1.24H34.56a1.79,1.79,0,0,0,1.3-1.24V43.61C35.86,43.29,35.43,43,35.14,42.87ZM8.27,26A16.84,16.84,0,0,1,1.65,12.67a10.85,10.85,0,0,1,10.18-11A10.7,10.7,0,0,1,23,11.82q0,.26,0,.52a.82.82,0,0,0,1.65,0A10.61,10.61,0,0,1,43.87,6a4.11,4.11,0,0,0-2.73,3.86A20.91,20.91,0,0,1,33,26.49l-2.13,1.66,2.54-3.67a4.63,4.63,0,0,0-7.08-5.91L15.93,29a21.07,21.07,0,0,0-1.51,1.69ZM9.86,47.79h-5v-3h5Zm-3.25-5a25.72,25.72,0,0,1,3.85-13.05l3,2.26A20.11,20.11,0,0,0,9.89,42.79Zm27.25,5h-22v-3h22Zm.38-6.57-1.66,1.57h-21A18.42,18.42,0,0,1,17.1,30.15L27.51,19.73a3,3,0,0,1,4.56,3.8l-5.6,8.09a.82.82,0,0,0,1.18,1.12l6.37-5A22.55,22.55,0,0,0,42.79,9.87a2.47,2.47,0,0,1,4.94,0A43.35,43.35,0,0,1,34.24,41.22ZM11.86,3.29V4.94c-3,0-6.1,2.85-6.1,6.85H4.11C4.12,6.79,7.86,3.3,11.86,3.29ZM4.11,13.17H5.76v1.65H4.11Z"/></g></g></g></svg>