<svg xmlns="http://www.w3.org/2000/svg" viewBox="0 0 46 49.29"><defs><style>.cls-1{fill:#fff;}</style></defs><title>icon 13</title><g id="Слой_2" data-name="Слой 2"><g id="_1280" data-name="1280"><g id="Body"><path class="cls-1" d="M44.36,38.61a9,9,0,1,1-9-9,9,9,0,0,1,9,9Zm-42.71,9v-46H32.86V28.23a10.66,10.66,0,0,0-3.2,19.42ZM33.68,0H.82A.82.82,0,0,0,0,.82V48.46a.82.82,0,0,0,.82.82h34.5a10.68,10.68,0,1,0,0-21.36c-.28,0-.55,0-.82,0V.82A.82.82,0,0,0,33.68,0ZM9,4.11V5.75H25.46V4.11ZM5.75,14v1.64H14V14Zm9.86,0v1.64h9V14ZM14,18.07v1.64h8.21V18.07Zm0,4.11v1.64H28.75V22.18ZM5.75,26.29v1.64h23V26.29ZM26.29,14v1.64h2.46V14Zm-2.46,4.11v1.64h4.93V18.07ZM5.75,30.39V32H23V30.39Zm0,4.11v1.64H23V34.5Zm0,4.11v1.64h4.93V38.61Zm6.57,0v1.64H23V38.61ZM5.75,9.86V11.5h23V9.86Zm0,8.21v1.64H11.5V18.07Zm0,4.11v1.64h6.57V22.18ZM31.42,39,34,40.89a.82.82,0,0,0,1.15-.16l0-.05,3.68-5.85,1.07.72-4.85,7.63L30.7,40,31.42,39Zm-2.32,2L34.84,45a.83.83,0,0,0,.48.15l.16,0a.82.82,0,0,0,.54-.36l5.75-9a.82.82,0,0,0-.24-1.12L39.08,33a.82.82,0,0,0-1.14.23v0L34.28,39l-2.57-1.93a.84.84,0,0,0-.63-.15.82.82,0,0,0-.54.35l-1.64,2.46a.82.82,0,0,0,.21,1.12Z"/></g></g></g></svg>