<svg xmlns="http://www.w3.org/2000/svg" viewBox="0 0 78 78"><defs><style>.cls-1{fill:#1b52d3;}</style></defs><title>icon 9</title><g id="Слой_2" data-name="Слой 2"><g id="_1280" data-name="1280"><g id="Body"><path class="cls-1" d="M27.44,56.8l-.23,0-1.09-.06.52-.79A9.15,9.15,0,0,0,29,49.44V41.31c0-.05.23-.1.22-.15l.11-.05-.17-.05c0-.14-.16-.27-.16-.41V35.51c0-.58,0-1.51-.57-1.51H18.06C14,34,11,37.79,11,41.88v7.57a9.2,9.2,0,0,0,2.42,6.48l.67.79L13,56.77l-.25,0A14,14,0,0,0,0,70.61v6.6c0,.58.47.79,1,.79h38c.58,0,.92-.22.92-.79v-6.6A13.89,13.89,0,0,0,27.47,56.82ZM13,41.88A4.74,4.74,0,0,1,18.06,37H27v3.65A3.13,3.13,0,0,1,23.6,44H13Zm0,7.56V47H23.6a5.48,5.48,0,0,0,2.83-1.08l.57-.7v4.22a7,7,0,1,1-14,0ZM24.64,59l-4.58,4.58L15.48,59ZM38,70.61V76H2V72H9a1,1,0,1,0,0-2H2.09l.06-.56A11.85,11.85,0,0,1,12.36,58.95l.24,0,6.72,6.72a1.08,1.08,0,0,0,1.47,0l6.72-6.72.23,0A11.76,11.76,0,0,1,38,70.61Z"/><path class="cls-1" d="M65.47,22.51l-.07,0a.88.88,0,0,0-.22,0L64.1,22.4l.53-.79A9.16,9.16,0,0,0,67,15.12V7c0-.05.22-.1.22-.15l.11-.05-.17-.05c0-.14-.16-.27-.16-.41V1.19C67,.61,67,0,66.42,0H56.05C52,0,49,3.47,49,7.56v7.56a9.19,9.19,0,0,0,2.42,6.48l.66.78-1.13.06-.25,0A14,14,0,0,0,38,36.29v6.6A1.09,1.09,0,0,0,39,44H51.47a1,1,0,1,0,0-2H40V36.29A11.81,11.81,0,0,1,50.31,24.63l.26,0,6.73,6.72a1.08,1.08,0,0,0,1.48,0l6.73-6.72.23,0A11.77,11.77,0,0,1,76,36.29V42H64.14a1,1,0,1,0,0,2H77.07A1,1,0,0,0,78,42.89v-6.6A13.89,13.89,0,0,0,65.47,22.51ZM51,7.56A5.31,5.31,0,0,1,56.05,2H65V6.33A3.39,3.39,0,0,1,61.59,10H51Zm7.05,22L53.47,25h9.15ZM58,22.45a7.06,7.06,0,0,1-7-7.32V12H61.59a5.12,5.12,0,0,0,2.84-.74L65,10.9v4.22A7.06,7.06,0,0,1,58,22.45Z"/><path class="cls-1" d="M58.79,43.63h0a1,1,0,1,0-1.47,0A1.07,1.07,0,0,0,58.79,43.63Z"/><path class="cls-1" d="M7.23,28h19.4a7.27,7.27,0,0,0,6.68-4.58l.13-.42h6.28c.42,0,.8-.05,1-.44a.86.86,0,0,0-.15-1L34,15V7.37A7.48,7.48,0,0,0,26.63,0H7.23A7.36,7.36,0,0,0,0,7.37V21A7.07,7.07,0,0,0,7.23,28ZM2,7.37A5.42,5.42,0,0,1,7.23,2h19.4A5.55,5.55,0,0,1,32,7.37v8.07c0,.28,0,.39.19.58l5,5H32.65a1.14,1.14,0,0,0-1,.91,5.21,5.21,0,0,1-5,4.09H7.23A5.13,5.13,0,0,1,2,21Z"/><path class="cls-1" d="M70.88,50H51.48a7.27,7.27,0,0,0-6.68,4.58l-.13.42H38.39a1,1,0,0,0-1,.64,1,1,0,0,0,.1,1.14L44,63.39V71c0,4,3.5,7,7.48,7h19.4A6.93,6.93,0,0,0,78,71V57.43A7.32,7.32,0,0,0,70.88,50ZM76,71a5,5,0,0,1-5.12,5H51.48C48.65,76,46,73.86,46,71V63c0-.27.06-.58-.13-.78L40.9,57h4.56a1.14,1.14,0,0,0,1-.91,5.21,5.21,0,0,1,5-4.09h19.4A5.38,5.38,0,0,1,76,57.43Z"/><path class="cls-1" d="M66.3,60.47l-4.46,4.46-2.27-2.27a1,1,0,1,0-1.47,1.47l3,3a1.07,1.07,0,0,0,1.47,0l5.2-5.2a1,1,0,0,0-1.47-1.47Z"/><path class="cls-1" d="M14.8,11.3a1,1,0,0,0,1-1A2.77,2.77,0,0,1,18.6,7.49h.2a2.77,2.77,0,0,1,2.56,2.56A2.59,2.59,0,0,1,19.43,13,1.92,1.92,0,0,0,18,15v.83a1,1,0,1,0,2,0V15l.18-.11a4.76,4.76,0,0,0,3.35-5,4.89,4.89,0,0,0-9.77.34A1,1,0,0,0,14.8,11.3Z"/><path class="cls-1" d="M18.61,20.71a1,1,0,0,0-.74,1.78,1.08,1.08,0,0,0,1.47,0,1,1,0,0,0-.74-1.78Z"/><path class="cls-1" d="M15.18,70a1,1,0,0,0-.74,1.78,1.08,1.08,0,0,0,1.47,0A1,1,0,0,0,15.18,70Z"/></g></g></g></svg>