<svg xmlns="http://www.w3.org/2000/svg" viewBox="0 0 411.16 198.56"><defs><style>.cls-1{fill:none;}.cls-2{fill:#fff;}</style></defs><title>icon 17</title><g id="Слой_2" data-name="Слой 2"><g id="_1280" data-name="1280"><g id="Body"><polygon class="cls-1" points="297.16 14.69 297.16 65.2 323.88 33.98 297.16 14.69"/><polygon class="cls-1" points="310.64 10.11 350.66 38.99 390.81 10.11 310.64 10.11"/><polygon class="cls-1" points="404.16 65.2 404.16 14.8 377.46 34.01 404.16 65.2"/><path class="cls-2" d="M344.74,75.43a1.7,1.7,0,0,0-1.2,2.9,1.78,1.78,0,0,0,2.4,0,1.74,1.74,0,0,0,.5-1.2,1.71,1.71,0,0,0-.5-1.2A1.73,1.73,0,0,0,344.74,75.43Z"/><path class="cls-2" d="M407.55,4.66l0,0a8.72,8.72,0,0,0-5.15-1.59H298.88A9,9,0,0,0,294,4.48c-.14.08,0,.09-.08.13A8.92,8.92,0,0,0,290.16,12V69.73c0,5,3.71,9.38,8.73,9.38h27.37a2,2,0,0,0,0-4H298.17l34.37-40,17.12,12.44a1.73,1.73,0,0,0,2,0l17.14-12.47,34.35,40H361a2,2,0,0,0,0,4h41.42c5,0,8.73-4.36,8.73-9.38V12A9,9,0,0,0,407.55,4.66ZM294.17,74.88l-.86-3.95a5.75,5.75,0,0,1-.15-1.21V12a5.69,5.69,0,0,1,.29-1.75l.85-2.62,35.48,25.6Zm56.49-31L298.26,6.11h105Zm57.5,25.81a5.77,5.77,0,0,1-.14,1.21l-.86,3.95L371.56,33.3,407.1,7.73l.81,2.71a5.69,5.69,0,0,1,.24,1.6Z"/><path class="cls-2" d="M36.29,144.75a1.7,1.7,0,0,0-1.2,2.9,1.78,1.78,0,0,0,2.41,0,1.7,1.7,0,0,0-1.2-2.9Z"/><path class="cls-2" d="M92.21,129.68a12.36,12.36,0,0,0-17.46,0L73.49,131a6.53,6.53,0,0,1-9.22,0L50.32,117a6.52,6.52,0,0,1,0-9.22l1.27-1.27a12.36,12.36,0,0,0,0-17.46L32.11,69.58a12.36,12.36,0,0,0-17.46,0L10,74.24a34.21,34.21,0,0,0,0,48.32L22.7,135.27a1.7,1.7,0,1,0,2.4-2.4L12.39,120.16a30.8,30.8,0,0,1,0-43.52L17.06,72a9,9,0,0,1,12.65,0L49.19,91.46a9,9,0,0,1,0,12.65l-1.27,1.27a10.11,10.11,0,0,0-1.05,1.25l-1.37,1.91L28.44,91.49a1.7,1.7,0,1,0-2.4,2.4l19,19,.08.69a9.79,9.79,0,0,0,2.84,5.86l13.94,13.94a9.93,9.93,0,0,0,14,0l1.27-1.27a9,9,0,0,1,12.65,0l19.49,19.49a8.94,8.94,0,0,1,0,12.65l-4.06,4.06L86.08,149.13a1.7,1.7,0,0,0-2.4,2.4l19.14,19.14-1.9,1.38a30.62,30.62,0,0,1-39.81-3.16l-9.58-9.58a1.7,1.7,0,0,0-2.4,2.4l9.58,9.58a34.21,34.21,0,0,0,48.32,0l4.66-4.66a12.34,12.34,0,0,0,0-17.46Z"/><path class="cls-2" d="M390.86,195.77a2.94,2.94,0,0,0-.19-.34,3.61,3.61,0,0,0-.21-.5,2.3,2.3,0,0,0-1.45-.82h0a2.21,2.21,0,0,0-1.4.79,2.3,2.3,0,0,0-.59,1.54,2.47,2.47,0,0,0,0,.43,1.73,1.73,0,0,0,.11.42,2.35,2.35,0,0,0,.2.38,1.8,1.8,0,0,0,.24.29,2,2,0,0,0,1.79.56,2.62,2.62,0,0,0,.41-.12,2.18,2.18,0,0,0,.31-.17,1.75,1.75,0,0,0,.32-.25,2.16,2.16,0,0,0,.24-.3,2.27,2.27,0,0,0,.21-.38,2.76,2.76,0,0,0,.1-.36,1.9,1.9,0,0,0,0-.38,2,2,0,0,0,0-.39A2.5,2.5,0,0,0,390.86,195.77Z"/><ellipse class="cls-2" cx="247.32" cy="196.56" rx="2" ry="2"/><ellipse class="cls-2" cx="368.77" cy="196.56" rx="1.99" ry="2"/><circle class="cls-2" cx="348.53" cy="196.56" r="2"/><circle class="cls-2" cx="186.6" cy="196.56" r="2"/><circle class="cls-2" cx="308.05" cy="196.56" r="2"/><circle class="cls-2" cx="328.29" cy="196.56" r="2"/><circle class="cls-2" cx="166.36" cy="196.56" r="2"/><circle class="cls-2" cx="267.57" cy="196.56" r="2"/><circle class="cls-2" cx="146.12" cy="196.56" r="2"/><circle class="cls-2" cx="227.08" cy="196.56" r="2"/><circle class="cls-2" cx="287.81" cy="196.56" r="2"/><circle class="cls-2" cx="206.84" cy="196.56" r="2"/><circle class="cls-2" cx="125.88" cy="196.56" r="2"/><circle class="cls-2" cx="24.67" cy="21.46" r="2"/><circle class="cls-2" cx="24.67" cy="40.91" r="2"/><path class="cls-2" d="M22.81,2.74a2.31,2.31,0,0,0,.21.4,2.32,2.32,0,0,0,.24.28,2.36,2.36,0,0,0,.31.25,1.79,1.79,0,0,0,.32.16,1.5,1.5,0,0,0,.35.11A1.91,1.91,0,0,0,25,4a1.54,1.54,0,0,0,.39-.12,1.57,1.57,0,0,0,.33-.17,2.53,2.53,0,0,0,.35-.28,2.33,2.33,0,0,0,.23-.29,2.37,2.37,0,0,0,.19-.36,2.8,2.8,0,0,0,.1-.36,1.81,1.81,0,0,0,0-.37A2,2,0,0,0,26.08.58a1.75,1.75,0,0,0-.3-.24,2.29,2.29,0,0,0-.37-.21,2.63,2.63,0,0,0-.35-.1,1.92,1.92,0,0,0-.39,0,1.87,1.87,0,0,0-.38,0,2.58,2.58,0,0,0-.4.12,2.93,2.93,0,0,0-.34.19,1.87,1.87,0,0,0-.26.21A2.05,2.05,0,0,0,22.67,2a1.91,1.91,0,0,0,0,.38A1.8,1.8,0,0,0,22.81,2.74Z"/><ellipse class="cls-2" cx="166.36" cy="2" rx="2" ry="2"/><ellipse class="cls-2" cx="125.88" cy="2" rx="2" ry="2"/><ellipse class="cls-2" cx="227.08" cy="2" rx="2" ry="2"/><ellipse class="cls-2" cx="44.91" cy="2" rx="2" ry="2"/><ellipse class="cls-2" cx="65.15" cy="2" rx="2" ry="2"/><ellipse class="cls-2" cx="105.64" cy="2" rx="2" ry="2"/><ellipse class="cls-2" cx="146.12" cy="2" rx="2" ry="2"/><ellipse class="cls-2" cx="186.6" cy="2" rx="2" ry="2"/><ellipse class="cls-2" cx="85.39" cy="2" rx="2" ry="2"/><ellipse class="cls-2" cx="267.57" cy="2" rx="2" ry="2"/><ellipse class="cls-2" cx="206.84" cy="2" rx="2" ry="2"/><ellipse class="cls-2" cx="247.33" cy="2" rx="2" ry="2"/><circle class="cls-2" cx="389.02" cy="118.74" r="2"/><circle class="cls-2" cx="389.02" cy="99.28" r="2"/><circle class="cls-2" cx="389.02" cy="138.19" r="2"/><circle class="cls-2" cx="389.02" cy="177.1" r="2"/><circle class="cls-2" cx="389.02" cy="157.65" r="2"/></g></g></g></svg>