<svg xmlns="http://www.w3.org/2000/svg" viewBox="0 0 47 47.57"><defs><style>.cls-1{fill:#fff;}</style></defs><title>icon 2</title><g id="Слой_2" data-name="Слой 2"><g id="_1280" data-name="1280"><g id="Body"><path d="M44.77,45.35H32.32V32.1a1,1,0,0,0-2.08,0V45.35H27.92V36.53a1,1,0,0,0-1-1H20.11a1,1,0,0,0-1,1v8.82H16.75V32.1a1,1,0,0,0-2.08,0V45.35H2.23V25.77H44.77V45.35Zm-23.62,0V37.57h4.69v7.78ZM5.54,20.79H41.45v2.9H5.54v-2.9Zm18-10.38a11.11,11.11,0,0,1,10.71,8.3H12.79a11.11,11.11,0,0,1,10.71-8.3Zm1-8.19h5.25V5.08H24.5V2.23ZM45.81,23.7H43.53V19.75a1,1,0,0,0-1-1H36.34A13.13,13.13,0,0,0,24.5,8.38V7.15h6.29a1,1,0,0,0,1-1V1.19a1,1,0,0,0-1-1H23.47a1,1,0,0,0-1,1V8.38A13.13,13.13,0,0,0,10.66,18.71H4.51a1,1,0,0,0-1,1V23.7H1.19a1,1,0,0,0-1,1V46.38a1,1,0,0,0,1,1H45.81a1,1,0,0,0,1-1V24.73a1,1,0,0,0-1-1Z"/><path class="cls-1" d="M45.81,47.57H1.19A1.19,1.19,0,0,1,0,46.38V24.73a1.19,1.19,0,0,1,1.19-1.19H3.32V19.75a1.19,1.19,0,0,1,1.19-1.19h6a13.37,13.37,0,0,1,4.22-7.09,13.17,13.17,0,0,1,7.52-3.23V1.19A1.19,1.19,0,0,1,23.47,0h7.33A1.19,1.19,0,0,1,32,1.19V6.12A1.19,1.19,0,0,1,30.79,7.3H24.65v.93a13.28,13.28,0,0,1,11.8,10.33h6a1.19,1.19,0,0,1,1.19,1.19v3.79h2.13A1.19,1.19,0,0,1,47,24.73V46.38A1.19,1.19,0,0,1,45.81,47.57ZM1.19,23.85a.89.89,0,0,0-.89.89V46.38a.89.89,0,0,0,.89.89H45.81a.89.89,0,0,0,.89-.89V24.73a.89.89,0,0,0-.89-.89H43.38V19.75a.89.89,0,0,0-.89-.89H36.21l0-.12A13,13,0,0,0,24.49,8.53h-.14V7h6.44a.89.89,0,0,0,.89-.89V1.19A.89.89,0,0,0,30.79.3H23.47a.89.89,0,0,0-.89.89V8.52h-.14A12.88,12.88,0,0,0,15,11.7a13.06,13.06,0,0,0-4.15,7l0,.12H4.51a.89.89,0,0,0-.89.89v4.09ZM44.92,45.5H32.17V32.1a.89.89,0,1,0-1.78,0V45.5H27.77v-9a.89.89,0,0,0-.89-.89H20.11a.89.89,0,0,0-.89.89v9H16.6V32.1a.89.89,0,1,0-1.78,0V45.5H2.08V25.62H44.92Zm-12.45-.3H44.62V25.92H2.38V45.2H14.53V32.1a1.19,1.19,0,1,1,2.38,0V45.2h2V36.53a1.19,1.19,0,0,1,1.19-1.19h6.77a1.19,1.19,0,0,1,1.19,1.19V45.2h2V32.1a1.19,1.19,0,1,1,2.38,0ZM26,45.5H21V37.42h5Zm-4.69-.3h4.39V37.72H21.3ZM41.6,23.85H5.4V20.64H41.6Zm-35.91-.3H41.3v-2.6H5.69Zm28.7-4.68H12.6l0-.19a11.2,11.2,0,0,1,21.7,0ZM13,18.56H34a10.9,10.9,0,0,0-21,0ZM29.91,5.23H24.35V2.08h5.55Zm-5.25-.3h5V2.38h-5Z"/><path d="M32.24,28.28a1,1,0,0,0-.1-.18,1,1,0,0,0-.13-.16l-.16-.13-.18-.1-.19-.06a1,1,0,0,0-.4,0l-.19.06-.18.1-.16.13a1,1,0,0,0-.13.16,1,1,0,0,0-.1.18,1,1,0,0,0-.06.19,1,1,0,0,0,0,.2,1,1,0,0,0,0,.2,1,1,0,0,0,.06.19,1.06,1.06,0,0,0,.1.18,1,1,0,0,0,.13.16l.16.13.18.1.19.06.2,0,.2,0,.19-.06.18-.1.16-.13a1,1,0,0,0,.13-.16,1,1,0,0,0,.1-.18,1.1,1.1,0,0,0,.06-.19,1,1,0,0,0,0-.2,1,1,0,0,0,0-.2,1.05,1.05,0,0,0-.06-.19Z"/><path class="cls-1" d="M31.28,29.86l-.23,0-.22-.07-.21-.11a1.16,1.16,0,0,1-.18-.15,1.18,1.18,0,0,1-.15-.18,1.31,1.31,0,0,1-.11-.2,1.21,1.21,0,0,1-.07-.22,1.23,1.23,0,0,1,0-.23,1.19,1.19,0,0,1,0-.23,1.17,1.17,0,0,1,.07-.22,1.25,1.25,0,0,1,.11-.21,1.17,1.17,0,0,1,.33-.33l.2-.11.22-.07a1.22,1.22,0,0,1,.46,0l.22.07.2.11a1.14,1.14,0,0,1,.18.15,1.09,1.09,0,0,1,.15.18,1.14,1.14,0,0,1,.11.21,1.21,1.21,0,0,1,.07.22,1.15,1.15,0,0,1,0,.23,1.19,1.19,0,0,1,0,.23,1.26,1.26,0,0,1-.07.22,1.18,1.18,0,0,1-.11.21,1.16,1.16,0,0,1-.15.18l-.18.15-.21.11-.22.07Zm0-2.08-.17,0-.17.05-.15.08-.13.11-.11.13a.86.86,0,0,0-.08.15.83.83,0,0,0-.05.17.88.88,0,0,0,0,.17.93.93,0,0,0,0,.17,1,1,0,0,0,.05.17,1,1,0,0,0,.08.15l.11.13.13.11.15.08.17.05a.93.93,0,0,0,.34,0l.17-.05.15-.08.13-.11.11-.13A.9.9,0,0,0,32.1,29a1,1,0,0,0,.05-.17.9.9,0,0,0,0-.34.89.89,0,0,0-.05-.17h0a.84.84,0,0,0-.08-.15.77.77,0,0,0-.11-.13l-.13-.11-.16-.08-.17-.05Z"/><path d="M16.67,28.28a1,1,0,0,0-.1-.18,1,1,0,0,0-.13-.16l-.16-.13-.18-.1-.2-.06a1,1,0,0,0-.4,0l-.19.06-.18.1-.16.13a1,1,0,0,0-.13.16,1,1,0,0,0-.1.18,1,1,0,0,0-.06.19,1,1,0,0,0,0,.2,1,1,0,0,0,.3.73l.16.13.18.1.19.06.2,0,.2,0,.2-.06.18-.1.16-.13a1,1,0,0,0,.3-.73,1,1,0,0,0,0-.2,1,1,0,0,0-.06-.19Z"/><path class="cls-1" d="M15.71,29.86l-.23,0-.22-.07-.21-.11a1.14,1.14,0,0,1-.18-.15,1.18,1.18,0,0,1-.32-1.07,1.17,1.17,0,0,1,.07-.22,1.25,1.25,0,0,1,.11-.21,1.17,1.17,0,0,1,.33-.33l.2-.11.22-.07a1.2,1.2,0,0,1,.46,0l.22.07.2.11a1.14,1.14,0,0,1,.18.15,1.09,1.09,0,0,1,.15.18,1.14,1.14,0,0,1,.11.21,1.16,1.16,0,0,1,.07.22,1.21,1.21,0,0,1,0,.23,1.2,1.2,0,0,1-.35.84,1.18,1.18,0,0,1-.18.15l-.2.11-.22.07Zm0-2.08-.17,0-.17.05-.15.08-.13.11-.11.13a.86.86,0,0,0-.08.15.83.83,0,0,0-.05.17.88.88,0,0,0,0,.17.89.89,0,0,0,.26.63l.13.11.15.08.17.05a.93.93,0,0,0,.34,0l.17-.05.15-.08.13-.11a.88.88,0,0,0,.24-.8.85.85,0,0,0-.05-.17h0a.84.84,0,0,0-.08-.15.77.77,0,0,0-.11-.13l-.13-.11-.16-.08-.17-.05Z"/><path d="M10.72,31.84H6.93V29.45h3.79v2.39Zm1-4.46H5.9a1,1,0,0,0-1,1v4.46a1,1,0,0,0,1,1h5.86a1,1,0,0,0,1-1V28.42a1,1,0,0,0-1-1Z"/><path class="cls-1" d="M11.76,34.07H5.9a1.19,1.19,0,0,1-1.19-1.19V28.42A1.19,1.19,0,0,1,5.9,27.23h5.86a1.19,1.19,0,0,1,1.19,1.19v4.46A1.19,1.19,0,0,1,11.76,34.07ZM5.9,27.53a.89.89,0,0,0-.89.89v4.46a.89.89,0,0,0,.89.89h5.86a.89.89,0,0,0,.89-.89V28.42a.89.89,0,0,0-.89-.89Zm5,4.46H6.78V29.3h4.09Zm-3.79-.3h3.49V29.6H7.08Z"/><path d="M10.72,41.1H6.93V38.71h3.79V41.1Zm1-4.46H5.9a1,1,0,0,0-1,1v4.46a1,1,0,0,0,1,1h5.86a1,1,0,0,0,1-1V37.67a1,1,0,0,0-1-1Z"/><path class="cls-1" d="M11.76,43.32H5.9a1.19,1.19,0,0,1-1.19-1.19V37.67A1.19,1.19,0,0,1,5.9,36.49h5.86a1.19,1.19,0,0,1,1.19,1.19v4.46A1.19,1.19,0,0,1,11.76,43.32ZM5.9,36.79a.89.89,0,0,0-.89.89v4.46A.89.89,0,0,0,5.9,43h5.86a.89.89,0,0,0,.89-.89V37.67a.89.89,0,0,0-.89-.89Zm5,4.46H6.78V38.56h4.09Zm-3.79-.3h3.49V38.86H7.08Z"/><path d="M25.39,31.84H21.6V29.45h3.79v2.39Zm1-4.46H20.57a1,1,0,0,0-1,1v4.46a1,1,0,0,0,1,1h5.86a1,1,0,0,0,1-1V28.42a1,1,0,0,0-1-1Z"/><path class="cls-1" d="M26.43,34.07H20.57a1.19,1.19,0,0,1-1.19-1.19V28.42a1.19,1.19,0,0,1,1.19-1.19h5.86a1.19,1.19,0,0,1,1.19,1.19v4.46A1.19,1.19,0,0,1,26.43,34.07Zm-5.86-6.54a.89.89,0,0,0-.89.89v4.46a.89.89,0,0,0,.89.89h5.86a.89.89,0,0,0,.89-.89V28.42a.89.89,0,0,0-.89-.89Zm5,4.46H21.45V29.3h4.09Zm-3.79-.3h3.49V29.6H21.75Z"/><path d="M40.06,31.84H36.27V29.45h3.79v2.39Zm1-4.46H35.24a1,1,0,0,0-1,1v4.46a1,1,0,0,0,1,1H41.1a1,1,0,0,0,1-1V28.42a1,1,0,0,0-1-1Z"/><path class="cls-1" d="M41.1,34.07H35.24A1.19,1.19,0,0,1,34,32.88V28.42a1.19,1.19,0,0,1,1.19-1.19H41.1a1.19,1.19,0,0,1,1.19,1.19v4.46A1.19,1.19,0,0,1,41.1,34.07Zm-5.86-6.54a.89.89,0,0,0-.89.89v4.46a.89.89,0,0,0,.89.89H41.1a.89.89,0,0,0,.89-.89V28.42a.89.89,0,0,0-.89-.89Zm5,4.46H36.12V29.3h4.09Zm-3.79-.3h3.49V29.6H36.42Z"/><path d="M40.06,41.1H36.27V38.71h3.79V41.1Zm1-4.46H35.24a1,1,0,0,0-1,1v4.46a1,1,0,0,0,1,1H41.1a1,1,0,0,0,1-1V37.67a1,1,0,0,0-1-1Z"/><path class="cls-1" d="M41.1,43.32H35.24A1.19,1.19,0,0,1,34,42.14V37.67a1.19,1.19,0,0,1,1.19-1.19H41.1a1.19,1.19,0,0,1,1.19,1.19v4.46A1.19,1.19,0,0,1,41.1,43.32Zm-5.86-6.54a.89.89,0,0,0-.89.89v4.46a.89.89,0,0,0,.89.89H41.1a.89.89,0,0,0,.89-.89V37.67a.89.89,0,0,0-.89-.89Zm5,4.46H36.12V38.56h4.09Zm-3.79-.3h3.49V38.86H36.42Z"/></g></g></g></svg>