<svg xmlns="http://www.w3.org/2000/svg" viewBox="0 0 49.81 49.81"><defs><style>.cls-1{fill:#fff;}</style></defs><title>icon 14</title><g id="Слой_2" data-name="Слой 2"><g id="_1280" data-name="1280"><g id="Body"><path class="cls-1" d="M7.47,44.48l-.69-.69.69-1.72.69,1.72-.69.69Zm0-14.6a3.63,3.63,0,0,1,4,3.44L8.73,31.66a.83.83,0,0,0-1.21.45C7.09,33.37,4.83,33.85,3.36,34c.22-2.78,1.53-4.1,4.11-4.1Zm-4,5.77c1.42-.12,4-.55,5.18-2.12l3,1.78A5.14,5.14,0,0,1,7.47,39a5.23,5.23,0,0,1-4-3.36ZM13,39.76a4.39,4.39,0,0,0-1.89-.7,5.76,5.76,0,0,0,2.19-4.19c0-5.49-3.16-6.64-5.81-6.64s-5.81,1.15-5.81,6.64a5.76,5.76,0,0,0,2.19,4.19A4.39,4.39,0,0,0,0,43.42v6.39H1.66V43.42A2.74,2.74,0,0,1,4.4,40.68H6.24l-1.2,3a.83.83,0,0,0,.18.9l1.66,1.66a.83.83,0,0,0,1.17,0l1.66-1.66a.83.83,0,0,0,.18-.9l-1.21-3h1.85a2.74,2.74,0,0,1,2.74,2.74v6.39h1.66V43.42a4.39,4.39,0,0,0-2-3.66ZM3.32,46.49v3.32H5V46.49Zm6.64,0v3.32h1.66V46.49Zm14.94-7-.69-.69.69-1.72.69,1.72-.69.69Zm0-14.6a3.63,3.63,0,0,1,4,3.44l-2.77-1.66a.83.83,0,0,0-1.21.45c-.42,1.26-2.69,1.74-4.15,1.88.22-2.78,1.53-4.1,4.11-4.1Zm-4,5.77c1.42-.12,4-.55,5.18-2.12l3,1.78A5.14,5.14,0,0,1,24.9,34a5.23,5.23,0,0,1-4-3.36Zm9.55,4.1a4.39,4.39,0,0,0-1.89-.7,5.76,5.76,0,0,0,2.19-4.19c0-5.49-3.16-6.64-5.81-6.64s-5.81,1.15-5.81,6.64a5.76,5.76,0,0,0,2.19,4.19,4.39,4.39,0,0,0-3.85,4.36v6.39h1.66V38.43a2.74,2.74,0,0,1,2.74-2.74h1.84l-1.2,3a.83.83,0,0,0,.18.9l1.66,1.66a.83.83,0,0,0,1.17,0l1.66-1.66a.83.83,0,0,0,.18-.9l-1.2-3H28a2.74,2.74,0,0,1,2.74,2.74v6.39h1.66V38.43a4.39,4.39,0,0,0-2-3.66Zm-9.66,6.73v3.32h1.66V41.51Zm6.64,0v3.32h1.66V41.51Zm14.94,3-.69-.69.69-1.72L43,43.8l-.69.69Zm0-14.6a3.63,3.63,0,0,1,4,3.44l-2.77-1.66a.83.83,0,0,0-1.21.45C42,33.37,39.69,33.85,38.23,34c.22-2.78,1.53-4.1,4.11-4.1Zm-4,5.77c1.42-.12,4-.55,5.18-2.12l3,1.78A5.14,5.14,0,0,1,42.34,39a5.23,5.23,0,0,1-4-3.36Zm9.55,4.1a4.39,4.39,0,0,0-1.89-.7,5.76,5.76,0,0,0,2.19-4.19c0-5.49-3.16-6.64-5.81-6.64s-5.81,1.15-5.81,6.64a5.76,5.76,0,0,0,2.19,4.19,4.39,4.39,0,0,0-3.85,4.36v6.39h1.66V43.42a2.74,2.74,0,0,1,2.74-2.74h1.84l-1.2,3a.83.83,0,0,0,.18.9l1.66,1.66a.83.83,0,0,0,1.17,0l1.66-1.66a.83.83,0,0,0,.18-.9l-1.2-3h1.85a2.74,2.74,0,0,1,2.74,2.74v6.39h1.66V43.42a4.39,4.39,0,0,0-2-3.66Zm-9.66,6.73v3.32h1.66V46.49Zm6.64,0v3.32h1.66V46.49ZM19.09,10.79H24.9a.81.81,0,0,1,.26.05l.11,0a.82.82,0,0,1-.38,1.56H21.43a.83.83,0,0,0-.78.55,1.66,1.66,0,1,1-1.56-2.21Zm.83-8.3a.83.83,0,1,1,1.66,0V9.13H19.92V2.49Zm4.15,4.15a.83.83,0,0,1,.83.83V9.13H23.24V7.47a.83.83,0,0,1,.83-.83Zm3.32,0a.83.83,0,0,1,.83.83v3.32a.83.83,0,0,1-.83.83,2.48,2.48,0,0,0-.83-1.84V7.47a.83.83,0,0,1,.83-.83Zm3.32,0a.83.83,0,0,1,.83.83v3.32a.83.83,0,1,1-1.66,0V7.47a.83.83,0,0,1,.83-.83Zm-5,11.62a6,6,0,0,1-5.23-2.82A3.33,3.33,0,0,0,22,14.11H24.9a2.48,2.48,0,0,0,1.84-.83h.65a2.47,2.47,0,0,0,1.66-.65,2.41,2.41,0,0,0,2.48.5s0,.1,0,.15c0,2.75-2.61,5-5.81,5Zm-6.91-2.52a7.55,7.55,0,0,0,6.91,4.18c4.12,0,7.47-3,7.47-6.64A5.91,5.91,0,0,0,33,11.79a2.47,2.47,0,0,0,.21-1V7.47a2.48,2.48,0,0,0-4.15-1.84,2.45,2.45,0,0,0-3.32,0,2.41,2.41,0,0,0-2.49-.5V2.49a2.49,2.49,0,0,0-5,0V9.25a3.3,3.3,0,0,0,.56,6.5Zm-4.4,8.43a10.86,10.86,0,0,1-.25-1.38L12.53,23a12.56,12.56,0,0,0,.28,1.59l1.61-.4Zm.43,4.76a12.52,12.52,0,0,0,1,1.24L17.09,29a10.94,10.94,0,0,1-.9-1.07l-1.34,1ZM12.92,18.19l1.6.45A10.74,10.74,0,0,1,15,17.32l-1.53-.65a12.52,12.52,0,0,0-.54,1.52Zm2.52,8.59a10.72,10.72,0,0,1-.59-1.27l-1.55.6A12.32,12.32,0,0,0,14,27.58l1.45-.8Zm-2.86-7a12.72,12.72,0,0,0-.13,1.61l1.66,0a10.87,10.87,0,0,1,.11-1.4l-1.64-.24Zm24.64,0L35.58,20a10.87,10.87,0,0,1,.12,1.4l1.66,0a12.58,12.58,0,0,0-.13-1.61ZM37.28,23l-1.65-.18a10.6,10.6,0,0,1-.24,1.38l1.61.4A12.4,12.4,0,0,0,37.28,23Zm-3.66,5a11,11,0,0,1-.9,1.07l1.2,1.14a12.6,12.6,0,0,0,1-1.24l-1.34-1Zm3.26-9.77a12.41,12.41,0,0,0-.54-1.52l-1.52.66a10.71,10.71,0,0,1,.47,1.32l1.6-.45Zm-1.06,9.39a12.32,12.32,0,0,0,.68-1.46L35,25.5a10.72,10.72,0,0,1-.59,1.27l1.46.8ZM35.7,0V1.66h1.66V0ZM34,1.66V3.32H35.7V1.66ZM35.7,3.32V5h1.66V3.32Zm1.66-1.66V3.32H39V1.66ZM40.68,0V1.66h1.66V0ZM11.62,5V6.64h1.66V5ZM10,6.64V8.3h1.66V6.64ZM11.62,8.3V10h1.66V8.3Zm1.66-1.66V8.3h1.66V6.64ZM7.47,2.49V4.15H9.13V2.49Z"/></g></g></g></svg>