<svg xmlns="http://www.w3.org/2000/svg" viewBox="0 0 47.48 47.47"><defs><style>.cls-1{fill:#1d1d1b;}.cls-2{fill:#f5f5f5;}</style></defs><title>icon 6</title><g id="Слой_2" data-name="Слой 2"><g id="_1280" data-name="1280"><g id="Body"><path class="cls-1" d="M3.25,47.37H41.07a3.15,3.15,0,0,0,3.15-3.15V41.86a.79.79,0,0,0-.79-.79H41.86V28.46H40.28V41.07H38.71V28.46H37.13V41.07H27.08a2.2,2.2,0,0,0-2,1.22.63.63,0,0,1-.57.35H20a.63.63,0,0,1-.57-.35,2.2,2.2,0,0,0-2-1.22H7.19V21.37A.79.79,0,0,1,8,20.59H22.16V19H8a2.36,2.36,0,0,0-2.36,2.36v19.7H4V19.8A2.36,2.36,0,0,1,6.4,17.43H22.16V15.86H6.4A3.94,3.94,0,0,0,2.46,19.8V41.07H.89a.79.79,0,0,0-.79.79v2.36a3.15,3.15,0,0,0,3.15,3.15ZM1.68,42.65H17.43A.63.63,0,0,1,18,43a2.2,2.2,0,0,0,2,1.22h4.54a2.2,2.2,0,0,0,2-1.22.63.63,0,0,1,.57-.35H42.65v1.58a1.58,1.58,0,0,1-1.58,1.58H3.25a1.58,1.58,0,0,1-1.58-1.58Zm0,0"/><path class="cls-2" d="M41.07,47.47H3.25A3.25,3.25,0,0,1,0,44.22V41.86A.89.89,0,0,1,.89,41H2.36V19.8a4.05,4.05,0,0,1,4-4H22.26v1.77H6.4A2.27,2.27,0,0,0,4.14,19.8V41H5.52V21.37A2.47,2.47,0,0,1,8,18.91H22.26v1.78H8a.69.69,0,0,0-.69.69V41H17.44a2.29,2.29,0,0,1,2.06,1.28.54.54,0,0,0,.48.3h4.55a.53.53,0,0,0,.48-.3A2.31,2.31,0,0,1,27.07,41H37V28.37h1.78V41h1.38V28.37H42V41h1.48a.89.89,0,0,1,.89.89v2.36A3.25,3.25,0,0,1,41.07,47.47ZM.89,41.17a.69.69,0,0,0-.69.69v2.36a3.05,3.05,0,0,0,3.05,3.05H41.07a3.05,3.05,0,0,0,3.05-3.05V41.86a.69.69,0,0,0-.69-.69H41.76V28.56H40.38V41.17H38.61V28.56H37.23V41.17H27.07a2.11,2.11,0,0,0-1.88,1.17.74.74,0,0,1-.66.41H20a.74.74,0,0,1-.66-.41,2.09,2.09,0,0,0-1.88-1.17H7.09V21.37A.89.89,0,0,1,8,20.49H22.06V19.11H8a2.27,2.27,0,0,0-2.26,2.26v19.8H3.94V19.8A2.47,2.47,0,0,1,6.4,17.33H22.06V16H6.4A3.85,3.85,0,0,0,2.56,19.8V41.17ZM41.07,45.9H3.25a1.68,1.68,0,0,1-1.68-1.67V42.55H17.44a.73.73,0,0,1,.66.41A2.11,2.11,0,0,0,20,44.12h4.56A2.11,2.11,0,0,0,26.42,43a.73.73,0,0,1,.65-.41H42.75v1.68A1.68,1.68,0,0,1,41.07,45.9ZM1.78,42.75v1.48A1.48,1.48,0,0,0,3.25,45.7H41.07a1.48,1.48,0,0,0,1.48-1.48V42.75H27.07a.53.53,0,0,0-.48.29,2.31,2.31,0,0,1-2.06,1.28H20A2.31,2.31,0,0,1,17.92,43a.53.53,0,0,0-.48-.29H1.78Z"/><path class="cls-1" d="M10.34,29.25v6.3a.79.79,0,0,0,.79.79H33.19a.79.79,0,0,0,.79-.79v-6.3a.79.79,0,0,0-.79-.79H11.13a.79.79,0,0,0-.79.79Zm1.58.79H32.4v4.73H11.92Zm0,0"/><path class="cls-2" d="M33.19,36.44H11.13a.89.89,0,0,1-.89-.89v-6.3a.89.89,0,0,1,.89-.89H33.19a.89.89,0,0,1,.89.89v6.3A.89.89,0,0,1,33.19,36.44ZM11.13,28.56a.69.69,0,0,0-.69.69v6.3a.69.69,0,0,0,.69.69H33.19a.69.69,0,0,0,.69-.69v-6.3a.69.69,0,0,0-.69-.69Zm21.37,6.3H11.82V29.94H32.5ZM12,34.67H32.3V30.14H12Z"/><rect class="cls-1" x="13.49" y="31.62" width="1.58" height="1.58"/><path class="cls-2" d="M15.17,33.29H13.39V31.52h1.78Zm-1.58-.2H15V31.72H13.59Z"/><rect class="cls-1" x="16.65" y="31.62" width="1.58" height="1.58"/><path class="cls-2" d="M18.32,33.29H16.55V31.52h1.78Zm-1.58-.2h1.38V31.72H16.75Z"/><rect class="cls-1" x="19.8" y="31.62" width="1.58" height="1.58"/><path class="cls-2" d="M21.47,33.29H19.7V31.52h1.78Zm-1.58-.2h1.38V31.72H19.9Z"/><rect class="cls-1" x="22.95" y="31.62" width="1.58" height="1.58"/><path class="cls-2" d="M24.63,33.29H22.85V31.52h1.78ZM23,33.09h1.38V31.72H23Z"/><path class="cls-1" d="M45,11.95V9.55a9.46,9.46,0,0,0-18.91,0v2.39a2.64,2.64,0,0,0-2.36,2.62v9.67a2.65,2.65,0,0,0,2.65,2.65H44.73a2.65,2.65,0,0,0,2.65-2.65V14.57A2.64,2.64,0,0,0,45,11.95ZM27.68,9.55a7.88,7.88,0,0,1,15.76,0v2.36H41.86V9.55a6.3,6.3,0,0,0-12.61,0v2.36H27.68Zm3.15,2.36V9.55a4.73,4.73,0,0,1,9.46,0v2.36Zm15,12.32a1.07,1.07,0,0,1-1.07,1.07H26.39a1.07,1.07,0,0,1-1.07-1.07V14.57a1.07,1.07,0,0,1,1.07-1.07H44.73a1.07,1.07,0,0,1,1.07,1.07Zm0,0"/><path class="cls-2" d="M44.73,27H26.39a2.76,2.76,0,0,1-2.75-2.75V14.57A2.74,2.74,0,0,1,26,11.86V9.55a9.56,9.56,0,0,1,19.11,0v2.3a2.74,2.74,0,0,1,2.36,2.71v9.67A2.76,2.76,0,0,1,44.73,27ZM35.56.2A9.37,9.37,0,0,0,26.2,9.55V12h-.09a2.54,2.54,0,0,0-2.27,2.52v9.67a2.56,2.56,0,0,0,2.55,2.55H44.73a2.56,2.56,0,0,0,2.55-2.55V14.57A2.54,2.54,0,0,0,45,12h-.09V9.55A9.37,9.37,0,0,0,35.56.2Zm9.17,25.21H26.39a1.18,1.18,0,0,1-1.17-1.17V14.57a1.18,1.18,0,0,1,1.17-1.17H44.73a1.18,1.18,0,0,1,1.17,1.17v9.67A1.18,1.18,0,0,1,44.73,25.41ZM26.39,13.59a1,1,0,0,0-1,1v9.67a1,1,0,0,0,1,1H44.73a1,1,0,0,0,1-1V14.57a1,1,0,0,0-1-1ZM43.54,12H41.76V9.55a6.2,6.2,0,1,0-12.41,0V12H27.58V9.55a8,8,0,0,1,16,0ZM42,11.82h1.38V9.55a7.78,7.78,0,1,0-15.56,0v2.26h1.38V9.55A6.4,6.4,0,0,1,42,9.55Zm-1.58.2H30.73V9.55a4.83,4.83,0,0,1,9.66,0Zm-9.46-.2h9.25V9.55a4.63,4.63,0,1,0-9.25,0Z"/><path class="cls-1" d="M35.56,16.65a2.36,2.36,0,0,0-.79,4.58v1.72h1.58V21.23a2.36,2.36,0,0,0-.79-4.58Zm0,3.15a.79.79,0,1,1,.79-.79.79.79,0,0,1-.79.79Zm0,0"/><path class="cls-2" d="M36.44,23H34.67V21.3a2.46,2.46,0,0,1,.88-4.75h0a2.46,2.46,0,0,1,.88,4.75Zm-1.58-.2h1.38V21.16l.07,0a2.26,2.26,0,0,0-.75-4.39h0a2.26,2.26,0,0,0-.75,4.39l.07,0Zm.69-3a.89.89,0,1,1,.89-.89A.89.89,0,0,1,35.56,19.9Zm0-1.58a.69.69,0,1,0,.69.69A.69.69,0,0,0,35.56,18.32Z"/><rect class="cls-1" x="14.28" y="12.71" width="1.58" height="1.58"/><path class="cls-2" d="M16,14.38H14.18V12.61H16Zm-1.58-.2h1.38V12.81H14.38Z"/><rect class="cls-1" x="14.28" y="9.55" width="1.58" height="1.58"/><path class="cls-2" d="M16,11.23H14.18V9.46H16ZM14.38,11h1.38V9.65H14.38Z"/><rect class="cls-1" x="14.28" y="6.4" width="1.58" height="1.58"/><path class="cls-2" d="M16,8.08H14.18V6.3H16Zm-1.58-.2h1.38V6.5H14.38Z"/><rect class="cls-1" x="14.28" y="3.25" width="1.58" height="1.58"/><path class="cls-2" d="M16,4.93H14.18V3.15H16Zm-1.58-.2h1.38V3.35H14.38Z"/><rect class="cls-1" x="17.43" y="3.25" width="1.58" height="1.58"/><path class="cls-2" d="M19.11,4.93H17.33V3.15h1.78Zm-1.58-.2h1.38V3.35H17.53Z"/><rect class="cls-1" x="20.59" y="3.25" width="1.58" height="1.58"/><path class="cls-2" d="M22.26,4.93H20.49V3.15h1.78Zm-1.58-.2h1.38V3.35H20.69Z"/><rect class="cls-1" x="23.74" y="3.25" width="1.58" height="1.58"/><path class="cls-2" d="M25.41,4.93H23.64V3.15h1.78Zm-1.58-.2h1.38V3.35H23.84Z"/></g></g></g></svg>