<svg xmlns="http://www.w3.org/2000/svg" viewBox="0 0 45.13 45.13"><defs><style>.cls-1{fill:#fff;}</style></defs><title>icon 15</title><g id="Слой_2" data-name="Слой 2"><g id="_1280" data-name="1280"><g id="Body"><path class="cls-1" d="M31.49,40.62H13.64l2.51-3H29l2.51,3Zm10.74,3H2.9l1.88-1.5H40.35l1.88,1.5ZM1.5,33.85V3.76A2.26,2.26,0,0,1,3.76,1.5H41.37a2.26,2.26,0,0,1,2.26,2.26V33.85a2.26,2.26,0,0,1-2.26,2.26H3.76A2.26,2.26,0,0,1,1.5,33.85Zm39.86,3.76a3.77,3.77,0,0,0,3.76-3.76V3.76A3.77,3.77,0,0,0,41.37,0H3.76A3.77,3.77,0,0,0,0,3.76V33.85a3.77,3.77,0,0,0,3.76,3.76H14.19l-2.51,3H4.51a.75.75,0,0,0-.47.16l-3.76,3a.75.75,0,0,0,.47,1.34H44.38a.75.75,0,0,0,.47-1.34l-3.76-3a.75.75,0,0,0-.47-.16H33.45l-2.51-3Zm-.75-7.52H4.51V4.51h36.1V30.09Zm1.5.75V3.76A.75.75,0,0,0,41.37,3H3.76A.75.75,0,0,0,3,3.76V30.84a.75.75,0,0,0,.75.75H41.37a.75.75,0,0,0,.75-.75ZM18.8,33.09v1.5h7.52v-1.5ZM17.3,12.79a3,3,0,0,1,3-3V8.27a4.52,4.52,0,0,0-4.51,4.51Zm-2,4.55q.21.23.44.44l-.71.71-.44-.44.71-.71ZM7.52,9V7.52h8.54A6.82,6.82,0,0,0,14.68,9Zm18.05,3.76a5.26,5.26,0,1,1-5.26-5.26,5.26,5.26,0,0,1,5.26,5.26Zm12-5.26V9H25.93a6.82,6.82,0,0,0-1.38-1.5ZM9.25,25.79A1.38,1.38,0,0,1,7.3,23.85l5.49-5.49.22.22,1.5,1.5.22.22L9.25,25.79Zm4.07-9a.75.75,0,0,0-1.06,0l-6,6a2.88,2.88,0,0,0,4.07,4.07l6-6a.75.75,0,0,0,0-1.06l-.22-.22.88-.88a6.75,6.75,0,0,0,9.7-8.15H38.36a.75.75,0,0,0,.75-.75v-3A.75.75,0,0,0,38.36,6H6.77A.75.75,0,0,0,6,6.77v3a.75.75,0,0,0,.75.75h7.16a6.69,6.69,0,0,0,.48,5.58l-.88.88-.22-.22Zm25-3.23H33.85V15h2.7l-4.35,4.35-2.52-1.26a.75.75,0,0,0-.84.11L22.5,23.87l-1.77-1.18a.75.75,0,0,0-.91.05l-5.26,4.51,1,1.14,4.83-4.14,1.78,1.19a.75.75,0,0,0,.92-.06l6.39-5.68L32,21a.75.75,0,0,0,.87-.14l4.73-4.74v2.7h1.5V14.29a.75.75,0,0,0-.75-.75Z"/></g></g></g></svg>