<svg xmlns="http://www.w3.org/2000/svg" viewBox="0 0 45.96 45.96"><defs><style>.cls-1{fill:#1b52d3;}.cls-2{fill:#fff;}</style></defs><title>icon 3</title><g id="Слой_2" data-name="Слой 2"><g id="_1280" data-name="1280"><g id="Body"><path class="cls-1" d="M6,17.09H8.71a.89.89,0,1,0,0-1.78H6a.89.89,0,0,0,0,1.78Z"/><path class="cls-2" d="M8.71,17.24H6a1,1,0,0,1,0-2.08H8.71a1,1,0,1,1,0,2.08ZM6,15.46a.74.74,0,1,0,0,1.48H8.71a.74.74,0,1,0,0-1.48Z"/><path class="cls-1" d="M11,16.2a.89.89,0,1,0,.89-.89.89.89,0,0,0-.89.89Z"/><path class="cls-2" d="M11.88,17.24a1,1,0,1,1,1-1A1,1,0,0,1,11.88,17.24Zm0-1.78a.74.74,0,1,0,.74.74A.74.74,0,0,0,11.88,15.46Z"/><path class="cls-1" d="M37.24,17.09h2.68a.89.89,0,0,0,0-1.78H37.24a.89.89,0,0,0,0,1.78Z"/><path class="cls-2" d="M39.92,17.24H37.25a1,1,0,1,1,0-2.08h2.67a1,1,0,0,1,0,2.08Zm-2.67-1.78a.74.74,0,1,0,0,1.48h2.67a.74.74,0,0,0,0-1.48Z"/><path class="cls-1" d="M44,33.32H36.08a6.37,6.37,0,0,0-12.74,0H1.93V1.93H44V33.32ZM37.63,40.8l-1.45.58a.89.89,0,0,0-.5.5l-.58,1.45-3.65-3.65a6.39,6.39,0,0,0,3.08-2l3.09,3.09ZM25.12,33.54a4.59,4.59,0,1,1,4.59,4.59,4.6,4.6,0,0,1-4.59-4.59Zm-.8,9.78-.58-1.45a.89.89,0,0,0-.5-.5l-1.45-.58,3.09-3.09a6.39,6.39,0,0,0,3.08,2l-3.65,3.65ZM44.91.15H1A.89.89,0,0,0,.15,1V34.21A.89.89,0,0,0,1,35.1H23.53a6.32,6.32,0,0,0,.37,1.07L19.57,40.5a.89.89,0,0,0,.3,1.46l2.35.93.93,2.35a.9.9,0,0,0,.83.56.89.89,0,0,0,.63-.26l5.09-5.09,5.09,5.09a.91.91,0,0,0,.81.24.89.89,0,0,0,.65-.54l.93-2.35L39.55,42a.89.89,0,0,0,.3-1.46l-4.33-4.33a6.33,6.33,0,0,0,.37-1.07h9a.89.89,0,0,0,.89-.89V1a.89.89,0,0,0-.89-.89Z"/><path class="cls-2" d="M24,46a1.05,1.05,0,0,1-1-.66L22.11,43l-2.29-.91a1,1,0,0,1-.35-1.71l4.26-4.26a6.49,6.49,0,0,1-.31-.88H1a1,1,0,0,1-1-1V1A1,1,0,0,1,1,0H44.91a1,1,0,0,1,1,1V34.21a1,1,0,0,1-1,1H36a6.39,6.39,0,0,1-.31.88L40,40.39a1,1,0,0,1-.35,1.71L37.31,43,36.4,45.3a1,1,0,0,1-.76.63,1.06,1.06,0,0,1-.95-.28l-5-5-5,5A1,1,0,0,1,24,46ZM1,.3A.74.74,0,0,0,.3,1V34.21A.74.74,0,0,0,1,35h22.6l0,.11a6.12,6.12,0,0,0,.37,1l0,.09-.07.07-4.33,4.33a.74.74,0,0,0,.25,1.21l2.41,1,0,.06.94,2.37a.75.75,0,0,0,.68.45.73.73,0,0,0,.52-.22l5.2-5.2.11.11,5.1,5.1a.78.78,0,0,0,.67.19.74.74,0,0,0,.54-.45l1-2.41.06,0,2.35-.93a.74.74,0,0,0,.25-1.21l-4.4-4.4,0-.09a6.14,6.14,0,0,0,.37-1l0-.11h9.14a.74.74,0,0,0,.74-.74V1A.74.74,0,0,0,44.91.3ZM24.26,43.59l-.66-1.66a.75.75,0,0,0-.42-.42l-1.66-.66,3.37-3.37.11.12a6.21,6.21,0,0,0,3,1.92l.25.07Zm-2.2-2.84,1.24.49a1.05,1.05,0,0,1,.58.58l.49,1.24,3.31-3.31a6.51,6.51,0,0,1-2.8-1.82Zm13.1,2.84-4-4,.25-.07a6.22,6.22,0,0,0,3-1.92l.11-.12.11.11,3.26,3.26-1.66.66a.74.74,0,0,0-.42.42Zm-3.42-3.85L35,43.06l.49-1.24a1,1,0,0,1,.58-.58l1.24-.49-2.82-2.82A6.51,6.51,0,0,1,31.74,39.75Zm-2-1.46a4.74,4.74,0,1,1,4.74-4.74A4.75,4.75,0,0,1,29.71,38.29Zm0-9.18a4.44,4.44,0,1,0,4.44,4.44A4.45,4.45,0,0,0,29.71,29.1Zm14.46,4.37H35.94v-.15a6.22,6.22,0,0,0-12.44,0v.15H1.78V1.78H44.17Zm-7.95-.3h7.65V2.08H2.08V33.17H23.2a6.52,6.52,0,0,1,13,0Z"/><path class="cls-1" d="M15,9.07H31a.89.89,0,0,0,0-1.78H15a.89.89,0,0,0,0,1.78Z"/><path class="cls-2" d="M31,9.22H15a1,1,0,1,1,0-2.08H31a1,1,0,1,1,0,2.08ZM15,7.43a.74.74,0,1,0,0,1.48H31a.74.74,0,0,0,0-1.48Z"/><path class="cls-1" d="M28.33,12.63a.89.89,0,0,0-.89-.89H22.09a.89.89,0,1,0,0,1.78h5.35a.89.89,0,0,0,.89-.89Z"/><path class="cls-2" d="M27.44,13.68H22.09a1,1,0,1,1,0-2.08h5.35a1,1,0,1,1,0,2.08Zm-5.35-1.78a.74.74,0,1,0,0,1.48h5.35a.74.74,0,1,0,0-1.48Z"/><path class="cls-1" d="M6,13.53h5.35a.89.89,0,0,0,0-1.78H6a.89.89,0,0,0,0,1.78Z"/><path class="cls-2" d="M11.39,13.68H6a1,1,0,1,1,0-2.08h5.35a1,1,0,1,1,0,2.08ZM6,11.89a.74.74,0,0,0,0,1.48h5.35a.74.74,0,0,0,0-1.48Z"/><path class="cls-1" d="M15,13.53h3.57a.89.89,0,0,0,0-1.78H15a.89.89,0,0,0,0,1.78Z"/><path class="cls-2" d="M18.52,13.68H15a1,1,0,1,1,0-2.08h3.57a1,1,0,1,1,0,2.08ZM15,11.89a.74.74,0,0,0,0,1.48h3.57a.74.74,0,1,0,0-1.48Z"/><path class="cls-1" d="M38.14,13.53h1.78a.89.89,0,0,0,0-1.78H38.14a.89.89,0,0,0,0,1.78Z"/><path class="cls-2" d="M39.92,13.68H38.14a1,1,0,1,1,0-2.08h1.78a1,1,0,0,1,0,2.08Zm-1.78-1.78a.74.74,0,0,0,0,1.48h1.78a.74.74,0,0,0,0-1.48Z"/><path class="cls-1" d="M30.11,12.63a.89.89,0,0,0,.89.89h3.57a.89.89,0,0,0,0-1.78H31a.89.89,0,0,0-.89.89Z"/><path class="cls-2" d="M34.57,13.68H31a1,1,0,1,1,0-2.08h3.57a1,1,0,0,1,0,2.08ZM31,11.89a.74.74,0,1,0,0,1.48h3.57a.74.74,0,1,0,0-1.48Z"/><path class="cls-1" d="M26.15,17.09H30.9a.89.89,0,1,0,0-1.78H26.15a.89.89,0,0,0,0,1.78Z"/><path class="cls-2" d="M30.9,17.24H26.15a1,1,0,0,1,0-2.08H30.9a1,1,0,0,1,0,2.08Zm-4.76-1.78a.74.74,0,1,0,0,1.48H30.9a.74.74,0,0,0,0-1.48Z"/><path class="cls-1" d="M22.09,16.2a.89.89,0,1,0,.89-.89.89.89,0,0,0-.89.89Z"/><path class="cls-2" d="M23,17.24a1,1,0,1,1,1-1A1,1,0,0,1,23,17.24Zm0-1.78a.74.74,0,1,0,.74.74A.74.74,0,0,0,23,15.46Z"/><path class="cls-1" d="M33.18,16.2a.89.89,0,1,0,.89-.89.89.89,0,0,0-.89.89Z"/><path class="cls-2" d="M34.07,17.24a1,1,0,1,1,1-1A1,1,0,0,1,34.07,17.24Zm0-1.78a.74.74,0,1,0,.74.74A.74.74,0,0,0,34.07,15.46Z"/><path class="cls-1" d="M15.05,15.31a.89.89,0,1,0,0,1.78h4.76a.89.89,0,0,0,0-1.78Z"/><path class="cls-2" d="M19.81,17.24H15.05a1,1,0,0,1,0-2.08h4.76a1,1,0,0,1,0,2.08Zm-4.76-1.78a.74.74,0,1,0,0,1.48h4.76a.74.74,0,1,0,0-1.48Z"/><path class="cls-1" d="M6,20.66H39.92a.89.89,0,0,0,0-1.78H6a.89.89,0,0,0,0,1.78Z"/><path class="cls-2" d="M39.92,20.81H6a1,1,0,0,1,0-2.08H39.92a1,1,0,0,1,0,2.08ZM6,19a.74.74,0,0,0,0,1.48H39.92a.74.74,0,0,0,0-1.48Z"/><path class="cls-1" d="M20.3,22.44H15a.89.89,0,0,0,0,1.78H20.3a.89.89,0,0,0,0-1.78Z"/><path class="cls-2" d="M20.3,24.38H15a1,1,0,1,1,0-2.08H20.3a1,1,0,0,1,0,2.08ZM15,22.59a.74.74,0,1,0,0,1.48H20.3a.74.74,0,0,0,0-1.48Z"/><path class="cls-1" d="M6,24.23h5.35a.89.89,0,0,0,0-1.78H6a.89.89,0,0,0,0,1.78Z"/><path class="cls-2" d="M11.39,24.38H6a1,1,0,1,1,0-2.08h5.35a1,1,0,1,1,0,2.08ZM6,22.59a.74.74,0,1,0,0,1.48h5.35a.74.74,0,0,0,0-1.48Z"/><path class="cls-1" d="M20.3,26a.89.89,0,1,0,.89.89A.89.89,0,0,0,20.3,26Z"/><path class="cls-2" d="M20.3,27.94a1,1,0,1,1,1-1A1,1,0,0,1,20.3,27.94Zm0-1.78a.74.74,0,1,0,.74.74A.74.74,0,0,0,20.3,26.16Z"/><path class="cls-1" d="M6,27.79h10.7a.89.89,0,0,0,0-1.78H6a.89.89,0,0,0,0,1.78Z"/><path class="cls-2" d="M16.74,27.94H6a1,1,0,1,1,0-2.08h10.7a1,1,0,1,1,0,2.08ZM6,26.16a.74.74,0,1,0,0,1.48h10.7a.74.74,0,1,0,0-1.48Z"/><path class="cls-1" d="M29.71,34.44a.89.89,0,1,1,.89-.89.89.89,0,0,1-.89.89Zm0-3.57a2.68,2.68,0,1,0,2.68,2.68,2.68,2.68,0,0,0-2.68-2.68Z"/><path class="cls-2" d="M29.71,36.37a2.83,2.83,0,1,1,2.83-2.83A2.83,2.83,0,0,1,29.71,36.37Zm0-5.35a2.52,2.52,0,1,0,2.52,2.52A2.53,2.53,0,0,0,29.71,31Zm0,3.57a1,1,0,1,1,1-1A1,1,0,0,1,29.71,34.59Zm0-1.78a.74.74,0,1,0,.74.74A.74.74,0,0,0,29.71,32.8Z"/></g></g></g></svg>