<svg xmlns="http://www.w3.org/2000/svg" xmlns:xlink="http://www.w3.org/1999/xlink" viewBox="0 0 26.39 28.39"><defs><style>.cls-1{fill:url(#Безымянный_градиент_10);}</style><linearGradient id="Безымянный_градиент_10" x1="-6.81" y1="-3.1" x2="26.02" y2="32.91" gradientUnits="userSpaceOnUse"><stop offset="0" stop-color="#009fe3"/><stop offset="1" stop-color="#0062cf"/></linearGradient></defs><title>Ресурс 28</title><g id="Слой_2" data-name="Слой 2"><g id="_1280" data-name="1280"><g id="Body"><path class="cls-1" d="M23.89,9.93,7.27.63A4.88,4.88,0,0,0,0,4.89V23.5a4.88,4.88,0,0,0,7.27,4.26l8-4.47a7.47,7.47,0,0,1-2.92-1.09.7.7,0,0,1-.23-.58v-1.9c0-.25.09-.32.32-.32h2.43c.25,0,.25.07.3.32l.12.53a4.29,4.29,0,0,0,1.29.25c.6,0,1.16-.09,1.16-.72s-.74-.79-2-1.25a7.55,7.55,0,0,1-2.47-1.32,2.75,2.75,0,0,1-.92-2.52c0-2.13,2-3.49,4.67-3.49a5.53,5.53,0,0,1,3.75,1.16.65.65,0,0,1,.16.53v1.76c0,.25-.07.32-.3.32H18.22c-.25,0-.28-.07-.32-.32L17.78,14a1.75,1.75,0,0,0-.53-.07c-.51,0-1.23,0-1.23.79s.65.76,1.64,1.13a8.8,8.8,0,0,1,3,1.55,3.27,3.27,0,0,1,.83,2.41l2.44-1.36A4.88,4.88,0,0,0,23.89,9.93ZM7.38,5.34A2.47,2.47,0,0,1,9.85,7.8a2.49,2.49,0,1,1-5,0A2.46,2.46,0,0,1,7.38,5.34ZM11,22.73c0,.25-.07.3-.32.3H4.25c-.25,0-.32,0-.32-.3V20.07c0-.23.07-.3.32-.3H5.39V14.89H4.3c-.28,0-.37,0-.37-.3V12c0-.32.09-.35.37-.35h5c.37,0,.32,0,.32.35v7.82h1.09c.25,0,.32.07.32.3Z"/></g></g></g></svg>