<svg xmlns="http://www.w3.org/2000/svg" viewBox="0 0 705.3 204.23"><defs><style>.cls-1{fill:#1b52d3;stroke:#f5f5f5;stroke-miterlimit:10;stroke-width:0.3px;}</style></defs><title>pic 2</title><g id="Слой_2" data-name="Слой 2"><g id="_1280" data-name="1280"><g id="Body"><path class="cls-1" d="M209,.15V23.56h60V11.43H234.75a3.82,3.82,0,1,0,0,2H266.9v8.06H211V2.19h71.64V23.56H454.27v-2H284.68V.15Z"/><path class="cls-1" d="M91.55,193H161.1l24.32-24.32H322.18V108.26H577.06v-2H320.15v60.4H184.58L160.25,191H91.55a3.82,3.82,0,1,0,0,2Z"/><path class="cls-1" d="M108.57,201.27h56.69L189.58,177H331.49V116.55H577.06v-2H329.46v60.41H188.74l-24.32,24.32H108.57a3.82,3.82,0,1,0,0,2Z"/><path class="cls-1" d="M364,125.73a3.81,3.81,0,0,0,2.8,3.67v20.18H402l24.32-24.32H521.8v21.38h175.8v-2H523.83V123.23H425.52L401.2,147.54H368.84V129.4a3.82,3.82,0,1,0-4.84-3.67Z"/><path class="cls-1" d="M429.69,131.51l-24.32,24.32h-48.3V144.3a3.82,3.82,0,1,0-2,0v13.56h51.18l24.32-24.32h83.05v21.37H701.76v-2H515.61V131.51Z"/><path class="cls-1" d="M433.08,140.76l-24.32,24.32H345a3.82,3.82,0,1,0,0,2H409.6l24.32-24.32H504v21.37H705.15v-2H506.05V140.76Z"/><path class="cls-1" d="M274.42,61V79.57h132l18.29-19.69h56.39V81.45h92.09a3.82,3.82,0,1,0,0-2H483.18V57.85H423.87L405.59,77.54H276.45V59H180.91L156.59,83.29H83.86c-.16-1-2.08-3-4.15-.68a3.08,3.08,0,0,0-.57,1.65,4.16,4.16,0,0,0,.61,1.82,2.46,2.46,0,0,0,4.1-.48,1.42,1.42,0,0,1,.11-.26h73.46L181.75,61Z"/><path class="cls-1" d="M265,69.29V90.66H411.68l21.59-21.37h37.94V90.7H606.75a3.82,3.82,0,1,0,0-2H473.25V67.26H432.44L410.84,88.63H267V67.26H181.11L156.79,91.58H93.45v2h64.19L182,69.29Z"/><path class="cls-1" d="M108.18,101.73h56.7L189.2,77.42h70.1V98.79H577.06v-2H261.33V75.38h-73L164,99.7H108.18a3.82,3.82,0,1,0,0,2Z"/><path class="cls-1" d="M290,54.51H390.41l24.32-24.32h95.43V51.56H686v-2H512.2V28.16H413.89l-.12.12H199V6.9H100.67L76.35,31.22H7.64a3.82,3.82,0,1,0,0,2H77.2L101.51,8.93h95.44V30.31h214.8l-6.25,6.25H190.77V15.18H104.84L80.52,39.51H24.66a3.82,3.82,0,1,0,0,2H81.36l24.33-24.31h83.05V38.59H403.46l-7.22,7.22h-215V24.43h-73L83.9,48.75H28a3.82,3.82,0,1,0,0,2h56.7l24.32-24.32h70.1V47.84h215l-4.64,4.64H290a3.82,3.82,0,1,0,0,2Z"/><path class="cls-1" d="M308.73,58a3.82,3.82,0,1,0,3.67,4.84h82.19L418.9,38.47H502V59.85H690.13v-2H504V36.44H418.06L393.74,60.76H312.39A3.82,3.82,0,0,0,308.73,58Z"/><path class="cls-1" d="M421.45,45.69,397.13,70H332a3.82,3.82,0,1,0,0,2H398l24.32-24.32h70.1V69.1H693.52v-2H494.42V45.69Z"/></g></g></g></svg>