<svg xmlns="http://www.w3.org/2000/svg" viewBox="0 0 876.73 196.8"><defs><style>.cls-1{fill:#fff;stroke:#1b52d3;stroke-miterlimit:10;stroke-width:0.25px;}</style></defs><title>Ресурс 28</title><g id="Слой_2" data-name="Слой 2"><g id="_1280" data-name="1280"><g id="Body"><path class="cls-1" d="M675.83,112.95a41.63,41.63,0,0,0-28.67,11.42l-91.1-65a41.79,41.79,0,1,0-71.5,7.41L391.7,128.43a41.72,41.72,0,0,0-62.7-2.21L236.55,62.76A41.79,41.79,0,1,0,164,64.45L73.22,126.94a41.2,41.2,0,1,0,1,1.14l90.57-62.36a41.75,41.75,0,0,0,71-1.66L328,127.34a41.79,41.79,0,1,0,64.65,2.27L485.49,68a41.74,41.74,0,0,0,69.91-7.23l90.67,64.67a41.77,41.77,0,1,0,29.76-12.48ZM41.92,194.87A40.29,40.29,0,1,1,72,127.8c.33.38.67.75,1,1.14a40.27,40.27,0,0,1-31.05,65.94ZM199.78,83.21A40.28,40.28,0,0,1,166,64.87c-.27-.42-.54-.84-.8-1.27a40.29,40.29,0,1,1,70.09-1.7c-.24.44-.49.88-.74,1.31A40.3,40.3,0,0,1,199.78,83.21Zm159.6,112a40.26,40.26,0,0,1-30.15-67q.5-.57,1-1.11a40.22,40.22,0,0,1,60.2,2.18c.32.39.63.78.93,1.18a40.26,40.26,0,0,1-32,64.73Zm158.74-113a40.23,40.23,0,0,1-31.37-15c-.31-.39-.63-.78-.93-1.18a40.29,40.29,0,1,1,69-7.47c-.21.46-.43.92-.65,1.38A40.33,40.33,0,0,1,518.12,82.21ZM675.83,195a40.27,40.27,0,0,1-28.53-68.72c.36-.36.73-.71,1.1-1.06A40.28,40.28,0,1,1,675.83,195ZM709.33,131l92.86-61.62a41.74,41.74,0,0,0,69.91-7.23l.66-1.37a41.79,41.79,0,1,0-71.5,7.41l-92.86,61.63ZM834.81,83.56a40.23,40.23,0,0,1-31.37-15c-.31-.39-.63-.78-.93-1.18a40.29,40.29,0,1,1,69-7.47c-.21.46-.43.92-.65,1.38A40.33,40.33,0,0,1,834.81,83.56Z"/></g></g></g></svg>